<svg xmlns="http://www.w3.org/2000/svg" width="302" height="284" fill="none" viewBox="0 0 302 284">
    <path fill="#DEEEFA" d="M161.689 75.255l.711-16.587-.355-11.9-6.473.868-3.237-1.695s-2.526 4.413-2.684 4.531c-.197.119-5.486 2.404-5.999 2.364-.514-.039-2.921-1.063-3.474-1.694-.552-.63-3.71-3.743-3.868-4.058-.197-.315-3.592.315-4.578.433-.987.119-4.461-1.576-4.461-1.576l-.75 3.27.514 46.572 34.654-20.528zM153.007 20.961c-.198.158-8.842-19.937-8.842-19.937l-8.644 20.607s4.737 2.719 5.487 2.955c.75.197 8.881-1.615 9.157-1.773.316-.197 2.842-1.852 2.842-1.852z"/>
    <path fill="#00ADBB" d="M45.096 196.019l-8.723 4.57.632-8.55 8.091 3.98z"/>
    <path fill="#F8FCFF" d="M9.414 173.875s1.224 2.088 3.987 3.783c2.763 1.694 34.102 19.385 34.102 19.385l14.88 9.298s4.46 1.813 5.408-1.142c.947-2.955 3.986-4.492 1.618-7.053-2.368-2.561-54.311-31.678-54.311-31.678l-13.46-2.049 7.776 9.456zM236.526 49.487s16.854-12.924 18.748-.63c1.895 12.293.356 57.918.356 57.918l.197 24.902.395 30.417-132.62 75.373-4.658-.512-2.881-3.979-1.263-4.334-.277-95.35 4.026-12.175s8.605-8.392 9.079-8.589c.394-.197 108.898-63.041 108.898-63.041zM206.804 207.957s15.196 4.492 19.656 13.514c4.46 9.023-13.222 14.579-13.222 14.579l-36.984 21.788s-4.46 2.286-8.328 3.271c-3.868.985-19.341-2.325-19.341-2.325l-12.63-7.289s-5.289-2.679-5.131-9.062c.158-6.383 7.618-7.841 7.618-7.841l-.198 4.689s23.485 13.396 25.103 13.435c3.079.079 15.157-8.432 24.117-13.514 8.13-4.61 22.932-12.096 22.458-13.318"/>
    <path fill="#DEEEFA" d="M285.666 85.145s-6.828-7.407-8.999-18.006c-2.171-10.599 0-.394 0-.394l5.407 2.758s9.118.59 8.92-9.299c-.197-9.89 0-18.479 0-18.479s-.947-13.002-16.656-21.906c-15.709-8.905-29.563-16.549-28.892-16.667.671-.118-9.868-5.004-11.762 6.974l.236 19.425 2.132 5.476s14.091 7.053 18.196 11.111l1.499 9.26 8.092 4.137S267.944 71 274.496 77.462c6.631 6.422 11.17 7.683 11.17 7.683z"/>
    <path fill="#00ADBB" d="M264.355 40.214c1.112-.552 1.15-2.737.083-4.88-1.067-2.144-2.834-3.435-3.947-2.883-1.112.552-1.15 2.737-.083 4.88 1.067 2.145 2.834 3.435 3.947 2.883zM276.941 47.488c1.113-.552 1.15-2.737.083-4.88-1.067-2.144-2.834-3.435-3.947-2.883-1.112.552-1.15 2.737-.083 4.88 1.067 2.144 2.834 3.435 3.947 2.883zM251.56 32.884c1.112-.552 1.15-2.737.083-4.881s-2.834-3.434-3.946-2.883c-1.113.552-1.151 2.738-.084 4.881 1.067 2.144 2.834 3.434 3.947 2.883zM53.858 139.754l32.05 18.519-34.852 20.921-2.526 5.201 7.5 4.965 44.403-25.374-.039-10.56-57.982-32.939-4.894 58.235 11.998 7.013 2.803-5.319-2.25-2.325M163.348 253.071l47.048-26.872-7.183-34.436-38.247 21.946-1.618 39.362z"/>
    <path fill="#052C4B" d="M137.811 238.492l2.447-10.678 24.708-14.105-2.092 39.361-25.063-14.578z"/>
    <path fill="#00ADBB" d="M182.61 107.643l-18.275 12.175-18.235 9.259v58.116s9.196.354 37.181-21.907l21.59-10.165 16.34-11.545V85.894L202.739 96.65l-20.129 10.993z"/>
    <path fill="#DEEEFA" d="M188.845 111.504L170.886 123.6l-17.919 9.219v57.683s8.999.355 36.51-21.749l21.195-10.087 16.025-11.465V89.912l-17.88 11.781-19.972 9.811z"/>
    <path fill="#fff" d="M161.354 46.543l-9.157-26.478s-5.487 10.481-16.854.71l-9.197 24.98s4.619 3.033 10.026 1.103c0 0 1.895 6.737 7.578 5.95 5.684-.789 7.776-6.738 7.776-6.738s7.105 3.034 9.828.473z"/>
    <path fill="#052C4B" d="M116.536 234.867l-13.656-7.998s-2.566-3.507-2.566-9.811v-91.606s-.987-13.278 14.13-22.813c15.117-9.535 117.424-67.218 117.424-67.218s4.697-2.088 10.065 3.27l9.434 5.083s-7.184.236-33.945 16.627c-27.59 16.864-92.558 54.137-92.558 54.137s-10.854 4.807-9.907 27.383c.711 16.43-.75 86.051.158 88.297.869 2.206 1.421 4.649 1.421 4.649zM95.302 282.502c1.737.985 3.947 1.498 6.158 1.498 2.21 0 4.42-.513 6.157-1.498l21.906-12.608c1.382-.788 2.171-1.93 2.171-3.191s-.75-2.364-2.171-3.192c-2.526-1.457-6.512-1.457-9.039 0l-17.919 10.323c-.947.552-1.5 1.379-1.5 2.246s.553 1.694 1.5 2.246c1.658.946 4.223.946 5.881 0l12.236-7.053c.473-.276.631-.867.355-1.339-.276-.473-.868-.631-1.342-.355l-12.236 7.053c-1.026.591-2.842.591-3.907 0-.356-.197-.513-.434-.513-.552 0-.118.157-.354.513-.551l17.919-10.323c1.934-1.104 5.171-1.104 7.065 0 .75.433 1.184.985 1.184 1.457 0 .513-.434 1.025-1.184 1.458l-21.906 12.608c-2.802 1.616-7.538 1.616-10.301 0-1.184-.669-1.855-1.536-1.855-2.403s.67-1.734 1.855-2.403l12.827-7.408c.474-.276.632-.867.356-1.339-.277-.473-.869-.631-1.342-.355l-12.828 7.407c-1.816 1.064-2.842 2.522-2.842 4.098 0 1.655.987 3.113 2.802 4.176z"/>
    <path fill="#052C4B" d="M189.477 169.62c18.907-8.038 30.748-14.894 38.247-22.183.197-.197.316-.433.316-.709V89.597c0-.394-.237-.749-.592-.906-.356-.158-.75-.119-1.066.157-1.224 1.064-2.447 2.049-3.71 3.034v-5.674c0-.315-.158-.63-.434-.827-.435-.315-.987-.315-1.5 0l-74.046 42.671c-.671.394-1.145 1.261-1.145 2.127v56.934c0 .749.395 1.301.987 1.498.079.039.197.039.276.039.158 0 .355-.039.474-.118l4.578-2.601v4.847c0 .315.158.63.434.827.158.118.356.158.553.158.118 0 .237-.04.355-.079 15.236-6.107 25.774-12.49 36.273-22.064zm-35.641-36.84c15.117-6.422 24.076-11.584 34.102-19.779v55.358c-9.947 8.983-19.933 15.13-34.102 20.921v-56.5zm66.862-39.44c-8.762 6.304-18.353 10.559-29.958 15.721l-2.21.985c-.079.039-.158.079-.197.118-10.815 9.062-19.499 14.184-35.839 21.04-.356.158-.592.512-.592.906v51.497l-4.382 2.482V130.14c0-.158.119-.355.198-.394l73.02-42.08v5.674h-.04zm-30.787 18.203l1.619-.709c13.577-6.029 24.432-10.835 34.497-19.11v54.61c-7.184 6.855-18.393 13.357-36.116 20.961v-55.752z"/>
    <path fill="#052C4B" d="M183.596 126.791c-7.105 5.319-13.973 9.299-23.722 13.711-.118.04-.276.079-.395.079-.355 0-.75-.236-.908-.591-.236-.512 0-1.064.474-1.3 9.591-4.334 16.341-8.274 23.327-13.514.434-.316 1.066-.237 1.381.197.356.472.277 1.103-.157 1.418zM159.045 146.294c6.157-2.797 11.131-5.398 15.63-8.234.474-.276 1.066-.158 1.382.315.276.473.158 1.064-.316 1.339-4.618 2.877-9.631 5.517-15.867 8.353-.118.04-.276.079-.395.079-.355 0-.75-.197-.908-.591-.236-.433 0-1.024.474-1.261zM183.596 142c-7.105 5.319-13.973 9.298-23.722 13.711-.118.039-.276.079-.395.079-.355 0-.75-.197-.908-.591-.236-.512 0-1.064.474-1.3 9.591-4.335 16.341-8.275 23.327-13.515.434-.315 1.066-.236 1.381.197.356.473.277 1.064-.157 1.419zM159.045 161.503c3.316-1.497 6.276-2.955 8.96-4.373.473-.237 1.066-.079 1.342.394.237.472.079 1.063-.395 1.339-2.763 1.458-5.723 2.916-9.078 4.413-.118.079-.276.079-.395.079-.355 0-.75-.197-.908-.591-.236-.433 0-1.025.474-1.261zM183.596 157.169c-7.105 5.319-13.973 9.299-23.722 13.711-.118.079-.276.079-.395.079-.355 0-.75-.197-.908-.591-.236-.512 0-1.064.474-1.3 9.591-4.334 16.341-8.274 23.327-13.514.434-.316 1.066-.237 1.381.197.356.472.277 1.103-.157 1.418zM159.045 176.712c1.776-.788 3.434-1.576 4.973-2.364.474-.237 1.066-.04 1.342.433.237.473.04 1.064-.434 1.3-1.579.788-3.236 1.576-5.052 2.364-.118.079-.276.079-.395.079-.355 0-.75-.197-.908-.591-.236-.433 0-1.024.474-1.221zM183.597 164.774c-4.855 3.624-9.67 6.698-15.196 9.574-.158.079-.316.118-.474.118-.355 0-.71-.197-.868-.512-.237-.473-.079-1.064.434-1.34 5.407-2.837 10.144-5.831 14.92-9.416.434-.316 1.065-.237 1.381.197.316.433.237 1.063-.197 1.379zM183.596 149.604c-3.355 2.522-6.67 4.728-10.143 6.777-.158.079-.316.118-.514.118-.315 0-.671-.157-.828-.473-.277-.472-.119-1.063.355-1.339 3.434-2.01 6.71-4.177 9.986-6.659.434-.315 1.065-.236 1.381.197.277.434.198 1.025-.237 1.379zM183.596 134.396c-1.5 1.103-2.961 2.167-4.421 3.152-.158.118-.355.157-.553.157-.315 0-.631-.157-.829-.433-.315-.434-.197-1.064.277-1.379 1.46-.985 2.881-2.01 4.341-3.113.435-.315 1.066-.236 1.382.197.316.473.237 1.103-.197 1.419zM196.7 115.838c8.723-3.941 15.907-7.487 22.459-11.978.434-.315 1.065-.197 1.381.236.316.434.197 1.064-.237 1.379-6.67 4.571-13.933 8.156-22.774 12.136-.119.039-.276.078-.395.078-.395 0-.75-.236-.908-.591-.236-.433-.039-1.024.474-1.26zM196.7 123.639c2.605-1.182 4.736-2.167 6.67-3.073.474-.236 1.066-.039 1.303.473.237.473.039 1.064-.474 1.3-1.934.946-4.065 1.931-6.71 3.113-.118.039-.276.079-.395.079-.394 0-.749-.197-.907-.591-.198-.473 0-1.064.513-1.301zM196.7 131.44c8.723-3.94 15.907-7.486 22.459-11.977.434-.316 1.065-.197 1.381.275.316.434.197 1.064-.237 1.379-6.67 4.571-13.933 8.156-22.774 12.136-.119.039-.276.079-.395.079-.395 0-.75-.197-.908-.591-.236-.473-.039-1.064.474-1.301zM196.7 139.242c3.947-1.773 8.565-3.901 12.986-6.304.473-.237 1.065-.079 1.342.394.276.473.079 1.064-.395 1.339-4.5 2.404-9.157 4.571-13.104 6.344-.119.039-.276.079-.395.079-.395 0-.75-.197-.908-.591-.236-.434-.039-1.025.474-1.261zM196.7 147.043c8.723-3.94 15.907-7.486 22.459-11.978.434-.315 1.065-.197 1.381.237.316.433.197 1.064-.237 1.379-6.67 4.57-13.933 8.156-22.774 12.135-.119.079-.276.079-.395.079-.395 0-.75-.197-.908-.591-.236-.433-.039-1.024.474-1.261zM196.7 154.845c2.723-1.222 4.934-2.246 6.947-3.231.473-.237 1.065-.039 1.302.473.237.473.039 1.064-.474 1.3-2.013.985-4.223 2.009-6.986 3.231-.118.039-.276.079-.395.079-.394 0-.75-.237-.907-.591-.198-.434 0-1.025.513-1.261zM220.264 113.316c-3.79 2.6-7.894 4.964-12.986 7.525-.158.079-.316.118-.434.118-.356 0-.711-.197-.869-.551-.236-.473-.039-1.064.435-1.34 4.973-2.521 9.038-4.846 12.748-7.368.435-.315 1.066-.197 1.382.276.276.434.197 1.025-.276 1.34zM207.279 149.801c4.539-2.285 8.407-4.571 11.841-6.935.434-.315 1.066-.197 1.381.276.316.434.198 1.064-.236 1.379-3.513 2.404-7.46 4.728-12.078 7.053-.158.079-.316.118-.435.118-.355 0-.71-.197-.868-.551-.276-.473-.079-1.064.395-1.34zM220.264 128.919c-1.697 1.182-3.474 2.285-5.368 3.388-.158.079-.316.158-.513.158-.316 0-.671-.158-.829-.473-.276-.473-.118-1.064.355-1.34 1.855-1.103 3.592-2.167 5.25-3.309.434-.316 1.065-.197 1.381.236.276.394.197 1.024-.276 1.34z"/>
    <path fill="#052C4B" d="M175.545 259.375l46.772-26.95c3.592-2.089 5.605-5.004 5.605-8.196 0-3.822-2.802-7.604-7.697-10.441l-7.736-4.452c-1.579-.906-3.315-1.655-5.131-2.285l-3.118-14.894 40.496-23.443c6.592-3.783 11.96-13.988 11.96-22.735V56.54l6.236 3.585c4.342 12.53 13.736 23.404 23.367 27.187.118.04.236.079.355.079.316 0 .631-.158.789-.434.277-.354.237-.866-.039-1.221-4.263-4.965-7.579-10.954-9.552-17.06 3.671 1.93 7.144 2.127 9.868.551 2.881-1.655 4.46-5.083 4.46-9.614V44.917c0-8.944-6.276-19.819-14.052-24.271L247.736 3.113c-3.947-2.286-7.697-2.6-10.578-.946-2.881 1.655-4.46 5.083-4.46 9.614v14.696c0 2.364.434 4.925 1.263 7.526-1.421.118-2.96.59-4.46 1.497l-66.784 38.495V45.153c0-.079 0-.157-.039-.236C160.191 33.806 145.706 1.93 145.074.59c-.158-.355-.513-.591-.908-.591-.355 0-.75.236-.908.552-.592 1.3-14.761 31.599-17.682 44.365 0 .079-.04.157-.04.236v50.275l-14.209 8.235c-6.591 3.822-11.96 13.987-11.96 22.734v25.768L42.887 119.62c-.316-.157-.671-.197-.948 0-.315.158-.513.473-.513.788l-4.302 57.447-20.92-11.978c-.512-.315-1.144-.434-1.775-.355l-13.262-2.285c-.395-.079-.83.118-1.027.473-.197.354-.197.788.08 1.103l8.406 10.52c.277.63.711 1.143 1.264 1.458l26.208 15.011-.671 9.023c-.04.355.158.709.473.906.158.119.356.158.514.158.157 0 .355-.039.473-.118l8.25-4.768 17.682 10.126c.434.237.947.394 1.46.394.671 0 1.421-.197 2.171-.63 2.408-1.379 4.263-4.61 4.263-7.368 0-1.537-.552-2.679-1.618-3.27l-11.328-6.501 41.523-23.956v52.876c0 4.688 1.578 8.353 4.302 10.007h.039l14.091 8.629.079.04c1.105.669 2.289.985 3.592.985 1.579 0 3.315-.513 5.052-1.498l12.039-6.934-.711 3.625c-1.618.945-2.565 1.458-2.565 1.458-3.592 2.088-5.566 5.003-5.566 8.195 0 3.822 2.803 7.644 7.697 10.441l7.736 4.452c4.894 2.837 11.17 4.256 17.13 4.256 5.052.078 9.789-.907 13.341-2.955zM63.213 203.859c0-2.049 1.5-4.649 3.276-5.674.434-.275.868-.394 1.184-.394.197 0 .355.04.474.119.394.236.631.788.631 1.576 0 2.048-1.5 4.649-3.276 5.673-.67.394-1.302.473-1.697.276-.355-.236-.592-.788-.592-1.576zm-25.695-4.728l.473-6.225 5.21 2.994-5.683 3.231zM4.52 165.798c-.158.236-.277.473-.395.709l-.71-.906 1.105.197zm6.867 1.182c-1.42 1.261-2.526 3.152-2.92 5.004l-2.96-3.704c.236-.748.67-1.497 1.223-2.088l4.657.788zm54.193 29.472c-.04 0-.04.039-.079.039-2.408 1.379-4.263 4.61-4.263 7.368v.118l-50.206-28.762-.67-.828c-.08-.236-.12-.512-.12-.827 0-2.049 1.5-4.649 3.277-5.674.316-.157.592-.276.868-.354l.987.157 50.206 28.763zm33.787-32.939L55.87 188.572l-16.814-9.654 4.223-56.815 56.088 32.308v9.102zm50.008-141.015c-2.842 1.655-7.696 1.655-10.538 0-.75-.434-2.368-1.576-1.737-3.152 2.921-6.856 5.684-13.002 7.065-15.997 1.342 3.034 4.066 9.141 6.947 15.997.671 1.576-.987 2.718-1.737 3.152zm11.407 23.089c-1.065.67-2.289 1.024-3.552 1.024-1.737 0-3.395-.67-4.658-1.852-.276-.276-.671-.315-1.026-.197s-.592.473-.631.828c-.316 3.506-3.237 6.146-6.75 6.146-3.355 0-6.236-2.482-6.71-5.831-.039-.355-.276-.67-.631-.788-.316-.118-.711-.079-.987.157-1.224.985-2.684 1.498-4.263 1.498-1.46 0-2.842-.473-3.986-1.3 1.263-5.477 4.697-14.46 8.21-22.853.473.67 1.184 1.26 2.052 1.773 1.737 1.024 3.987 1.537 6.276 1.537 2.25 0 4.499-.513 6.236-1.537.868-.512 1.579-1.103 2.053-1.773 3.631 8.707 7.223 17.927 8.367 22.852v.316zm0 29.55l-33.234 19.149v-46.69c1.224.63 2.605.985 3.987.985 1.5 0 2.96-.394 4.263-1.103 1.144 3.546 4.499 6.028 8.328 6.028 3.986 0 7.341-2.6 8.407-6.265 1.381.867 3 1.34 4.657 1.34 1.263 0 2.448-.276 3.553-.749v27.305h.039zm76.375-38.455l.079.04 10.026 6.146c-1.145.236-2.329.67-3.513 1.34l-2.763 1.576-115.451 66.587c-6.591 3.782-11.959 13.987-11.959 22.734v92.237c0 2.127.316 4.019.947 5.634l-9.789-5.989c-2.131-1.3-3.394-4.334-3.394-8.353v-92.237c0-8.116 4.934-17.533 10.973-21.04l118.213-68.123c2.487-1.419 4.855-1.616 6.631-.552zm19.538 17.06c0-4.688-1.579-8.352-4.302-10.007l-.04-.04-14.17-8.668c-.631-.394-1.302-.67-2.052-.827-.947-2.64-1.46-5.28-1.46-7.683V11.86c0-3.783 1.223-6.62 3.473-7.88 2.25-1.3 5.289-.946 8.604.945l30.392 17.494c7.184 4.137 13.065 14.263 13.065 22.577v14.696c0 3.822-1.223 6.62-3.473 7.92-2.25 1.3-5.289.945-8.605-.946l-1.421-.828c-.355-.197-.789-.157-1.105.08-.316.236-.434.63-.355 1.024 1.539 5.792 4.302 11.584 7.933 16.666-7.736-4.689-15.038-14.145-18.551-24.428-.078-.237-.236-.434-.434-.552l-7.539-4.334v-.551h.04zm-91.808 158.746l-25.419 14.657h-.039l-13.894 7.998c-2.486 1.419-4.855 1.616-6.631.552l-.039-.04c-2.092-1.339-3.316-4.373-3.316-8.313v-92.237c0-8.117 4.934-17.533 10.973-21.04l115.451-66.548 2.762-1.576c2.487-1.418 4.816-1.615 6.592-.551h.039c2.132 1.3 3.355 4.334 3.355 8.352v92.237c0 8.117-4.933 17.534-10.972 21.04l-78.862 45.469zm-24.077 16.115l23.446-13.515-2.013 36.761-23.327-13.475 1.894-9.771zm68.481-2.798l-45.035 25.965 2.052-37.824 36.076-20.804 3.118 14.815s0 .039.039.039l3.75 17.809zm12.039 4.886l-46.773 26.989c-7.262 4.177-20.011 3.625-28.418-1.221l-7.736-4.452c-4.263-2.443-6.71-5.635-6.71-8.747 0-2.483 1.618-4.807 4.578-6.501 0 0 .395-.237 1.066-.631l-.513 2.601c-.079.433.118.827.473 1.024l25.38 14.618h.039c.079.039.119.079.198.079.079 0 .118.039.197.039h.039c.079 0 .158 0 .237-.039h.079c.04 0 .119-.04.158-.079h.04l47.206-27.226c.355-.197.553-.631.474-1.064l-3.553-16.824c1.303.512 2.526 1.064 3.671 1.734l7.736 4.452c4.263 2.443 6.71 5.634 6.71 8.747 0 2.482-1.618 4.807-4.578 6.501z"/>
    <path fill="#052C4B" d="M51.016 180.298l36.194-20.843c.316-.158.474-.513.474-.867 0-.355-.197-.67-.474-.867l-33.194-19.149c-.316-.157-.671-.157-.947 0-.316.158-.514.473-.514.788l-3 39.992c-.039.355.159.709.474.906.158.118.356.158.513.158.119 0 .316-.04.474-.118zm.632-2.64l2.723-36.564 30.353 17.494-33.076 19.07zM253.775 30.85c0-2.363-1.618-5.16-3.67-6.343-1.145-.67-2.329-.748-3.237-.236-.908.512-1.421 1.576-1.421 2.916 0 2.364 1.619 5.161 3.671 6.343.632.355 1.303.552 1.934.552.474 0 .908-.118 1.303-.355.907-.512 1.42-1.576 1.42-2.876zm-1.973 0c0 .592-.158 1.025-.434 1.183-.276.157-.75.079-1.263-.237-1.461-.827-2.684-2.955-2.684-4.61 0-.59.158-1.024.434-1.181.079-.04.197-.08.316-.08.237 0 .592.119.908.316 1.499.827 2.723 2.916 2.723 4.61zM258.314 34.594c0 2.364 1.619 5.161 3.671 6.343.632.355 1.303.552 1.934.552.474 0 .908-.118 1.303-.355.908-.512 1.421-1.576 1.421-2.916 0-2.364-1.619-5.161-3.671-6.343-1.145-.67-2.329-.749-3.237-.236-.907.551-1.421 1.615-1.421 2.955zm1.974 0c0-.591.158-1.025.434-1.182.079-.04.197-.08.316-.08.237 0 .592.119.908.316 1.46.827 2.684 2.955 2.684 4.61 0 .59-.158 1.024-.435 1.182-.276.157-.749.079-1.263-.236-1.42-.828-2.644-2.956-2.644-4.61zM271.102 41.962c0 2.364 1.618 5.161 3.67 6.343.632.394 1.303.552 1.895.552.474 0 .908-.118 1.302-.355.908-.512 1.421-1.576 1.421-2.915 0-2.364-1.618-5.162-3.67-6.344-1.145-.67-2.329-.748-3.237-.236-.868.551-1.381 1.615-1.381 2.955zm1.973 0c0-.591.158-1.025.434-1.182.079-.04.198-.079.355-.079.237 0 .593.118.908.315 1.461.828 2.684 2.955 2.684 4.61 0 .591-.158 1.025-.434 1.182-.276.158-.75.079-1.263-.236-1.46-.828-2.684-2.955-2.684-4.61zM287.562 196.688l6.907 6.659s-5.763 2.009-5.921 2.009c-.157 0-2.447 3.192-2.447 3.192s-7.341-3.192-8.96-11.505c-1.657-8.314-.907-8.274-.907-8.274l4.223-.473 4.026-3.389 3.079 11.781z"/>
    <path fill="#00ADBB" d="M286.157 181.708c3.041-5.257 3.103-10.904.14-12.613-2.964-1.708-7.832 1.17-10.873 6.427-3.041 5.258-3.103 10.905-.14 12.613 2.964 1.708 7.832-1.169 10.873-6.427z"/>
    <path fill="#F8FCFF" d="M282.764 180.289c1.046-1.809.838-3.884-.464-4.635-1.303-.75-3.207.107-4.253 1.917-1.046 1.809-.839 3.884.464 4.635 1.302.75 3.207-.108 4.253-1.917z"/>
    <path fill="#F8FCFF" d="M246.551 221.038l32.05-19.11s-2.566-6.461-2.447-12.608c0 0-6.434-2.994-2.131-12.451 4.302-9.456 16.38-13.041 14.367-.63l-3.592 8.905s2.092 11.583 3.473 11.662c1.382.118 11.96-7.407 11.96-7.407v-83.451s-54.667 31.284-54.311 31.284c.355 0 .631 83.806.631 83.806z"/>
    <path fill="#052C4B" d="M301.02 105.594c0-.512-.552-.788-.986-.552l-12.552 7.25-41.838 24.113c-.316.158-.474.512-.474.867v83.608c0 .355.197.67.474.867.157.079.315.118.473.118.158 0 .355-.039.474-.118l31.931-18.4c1.737 2.64 4.145 4.728 7.302 6.383.158.079.316.118.474.118.079 0 .197 0 .316-.039.236-.079.473-.237.592-.473l1.736-3.349 6.71-1.025c.435-.079.75-.394.829-.827.079-.434-.158-.828-.513-1.025-2.644-1.379-4.894-3.467-6.591-5.949l11.209-6.462c.316-.157.474-.512.474-.867v-84.238h-.04zm-8.328 97.713l-4.539.71c-.316.039-.592.236-.71.512l-1.5 2.915c-4.421-2.521-8.684-6.816-8.96-17.651h.118c1.263 0 2.645-.394 4.026-1.221.908-.513 1.816-1.222 2.645-1.97.316 3.861 1.5 7.486 3.315 10.519 0 .04.04.04.04.079 0 .04.039.04.039.079 1.461 2.404 3.316 4.452 5.526 6.028zm-17.209-15.878c-1.184-.67-1.816-2.207-1.816-4.295 0-4.728 3.316-10.48 7.421-12.884 1.105-.63 2.131-.945 3.039-.945.592 0 1.105.118 1.579.394 1.184.669 1.815 2.206 1.815 4.294 0 3.152-1.499 6.777-3.71 9.535l-.079.079c-1.065 1.34-2.328 2.443-3.67 3.231-1.737 1.064-3.395 1.261-4.579.591zm23.564 1.773l-10.736 6.186c-1.737-3.152-2.684-6.856-2.724-10.835 2.369-3.074 3.947-7.014 3.947-10.52 0-2.798-.986-4.925-2.802-5.989-1.816-1.025-4.144-.828-6.591.551-4.737 2.719-8.408 9.141-8.408 14.579 0 2.797.987 4.925 2.803 5.989.158.078.276.157.434.197.079 4.925.908 8.944 2.605 12.214l-30.471 17.533v-81.284l42.352-24.389 9.591-5.516v81.284z"/>
    <path fill="#052C4B" d="M288.113 126.831l-31.063 17.888c-.474.276-.632.867-.355 1.34.197.315.513.472.868.472.158 0 .355-.039.474-.118l31.063-17.888c.473-.276.631-.867.355-1.339-.237-.473-.869-.631-1.342-.355zM288.113 139.991l-31.063 17.887c-.474.276-.632.867-.355 1.34.197.315.513.473.868.473.158 0 .355-.04.474-.118l31.063-17.888c.473-.276.631-.867.355-1.34-.237-.433-.869-.63-1.342-.354zM288.113 146.61l-9.354 5.398c-.474.276-.632.867-.355 1.339.197.316.513.473.868.473.158 0 .355-.039.474-.118l9.354-5.398c.474-.276.631-.867.355-1.34-.237-.472-.868-.63-1.342-.354zM288.113 153.189l-31.063 17.888c-.474.276-.632.867-.355 1.34.197.315.513.473.868.473.158 0 .355-.04.474-.118l31.063-17.888c.473-.276.631-.867.355-1.34-.237-.473-.869-.63-1.342-.355zM267.746 147.28c.158 0 .356-.04.474-.119l20.051-11.544c.474-.276.632-.867.355-1.34-.276-.472-.868-.63-1.342-.354l-20.051 11.544c-.473.276-.631.867-.355 1.34.158.315.513.473.868.473zM284.443 176.948c0-1.221-.474-2.206-1.342-2.679-.829-.473-1.934-.433-3 .197-1.855 1.064-3.355 3.625-3.355 5.753 0 1.221.474 2.206 1.342 2.679.355.197.789.315 1.224.315.552 0 1.184-.157 1.776-.512 1.894-1.064 3.355-3.586 3.355-5.753zm-4.342 4.059c-.434.236-.829.315-1.026.197-.197-.119-.355-.513-.355-.985 0-1.458 1.065-3.349 2.368-4.059.276-.157.552-.236.789-.236.079 0 .198 0 .237.039.197.119.355.513.355.985 0 1.458-1.065 3.31-2.368 4.059zM274.615 155.515c-.276-.473-.869-.631-1.342-.355l-15.354 8.826c-.474.276-.632.867-.355 1.34.276.472.868.63 1.342.354l15.314-8.826c.474-.236.671-.866.395-1.339zM263.946 179.046c-.553-.04-.987.433-1.026.945 0 .71-.04 1.379-.04 2.089-.039 2.679-.118 5.398-.355 8.195-.158-.158-.355-.236-.592-.236-.434-.04-.829.197-.987.591-.789 1.812-1.539 3.664-2.447 5.516-.118-.276-.237-.552-.395-.867-.157-.355-.473-.552-.868-.591-.395 0-.75.197-.908.512-.592 1.064-.947 2.167-1.342 3.231-.315.946-.631 1.852-1.065 2.679-.237.473-.04 1.064.434 1.34.158.079.316.118.434.118.355 0 .71-.197.868-.552.513-.945.829-1.97 1.184-2.955.119-.315.237-.63.316-.945.04.118.079.197.119.315.197.473.71.709 1.184.591l.434-.118c.276-.079.474-.237.592-.473.75-1.458 1.421-2.955 2.092-4.413.158.355.355.709.631 1.024.237.276.632.394 1.027.316.355-.119.631-.434.71-.788.632-4.334.75-8.472.829-12.412 0-.709.039-1.379.039-2.048.119-.591-.315-1.064-.868-1.064zM257.563 153.15c.158 0 .355-.039.474-.118l4.894-2.837c.473-.276.631-.867.355-1.339-.276-.473-.868-.631-1.342-.355l-4.894 2.837c-.474.276-.632.867-.355 1.339.197.276.513.473.868.473z"/>
</svg>
