<svg xmlns="http://www.w3.org/2000/svg" xmlns:xlink="http://www.w3.org/1999/xlink" width="498" height="511.33" viewBox="0 0 498 511.33">
  <defs>
    <clipPath id="clip-path">
      <rect id="Rectangle_20" data-name="Rectangle 20" width="255.63" height="286.609" transform="translate(0 0)" fill="#fff"/>
    </clipPath>
    <clipPath id="clip-path-2">
      <rect id="Rectangle_21" data-name="Rectangle 21" width="159.486" height="95.434" transform="translate(0 0)" fill="#fff"/>
    </clipPath>
    <clipPath id="clip-path-3">
      <rect id="Rectangle_22" data-name="Rectangle 22" width="110.848" height="77.608" fill="#fff"/>
    </clipPath>
    <clipPath id="clip-path-4">
      <rect id="Rectangle_23" data-name="Rectangle 23" width="73.145" height="103.732" transform="translate(0 0)" fill="#fff"/>
    </clipPath>
  </defs>
  <g id="Group_11163" data-name="Group 11163" transform="translate(139 -119.73)">
    <g id="Group_32" data-name="Group 32" transform="translate(-139 133.036)">
      <g id="Group_34" data-name="Group 34" transform="translate(0 0)">
        <ellipse id="Ellipse_4" data-name="Ellipse 4" cx="101" cy="101.5" rx="101" ry="101.5" transform="translate(296 295.024)" fill="#ecf6fd"/>
        <circle id="Ellipse_1" data-name="Ellipse 1" cx="249" cy="249" r="249" transform="translate(0 0.024)" fill="#4baaba" opacity="0.1"/>
      </g>
    </g>
    <g id="Group_26" data-name="Group 26" transform="translate(-139 119.73)">
      <g id="Group_4" data-name="Group 4" transform="translate(0 8.452)" clip-path="url(#clip-path)">
        <path id="Path_4" data-name="Path 4" d="M246.448,297.253v34.195c0,2.81-1.8,6.156-4.016,7.361l-38.5,21.48a2.69,2.69,0,0,1-2.631.2,3.392,3.392,0,0,1-1.384-3.145V323.15c0-2.81,1.8-6.156,4.015-7.36l38.5-21.481a2.775,2.775,0,0,1,2.562-.268l.069.067A3.469,3.469,0,0,1,246.448,297.253Z" transform="translate(8.143 -187.039)" fill="#fff"/>
        <path id="Path_5" data-name="Path 5" d="M236.34,289.231l6.508,3.614a2.775,2.775,0,0,0-2.562.267l-38.5,21.481c-2.215,1.2-4.015,4.55-4.015,7.36v34.195a3.549,3.549,0,0,0,1.384,3.145l-6.578-3.68a3.393,3.393,0,0,1-1.384-3.145v-34.2c0-2.81,1.8-6.156,4.015-7.36l38.5-21.481A2.692,2.692,0,0,1,236.34,289.231Z" transform="translate(10.289 -185.843)" fill="#001c33"/>
        <path id="Path_6" data-name="Path 6" d="M217.347,217.74v34.195c0,2.81-1.8,6.157-4.016,7.361l-82.117,45.839a2.692,2.692,0,0,1-2.632.2,3.391,3.391,0,0,1-1.384-3.144v-34.2c0-2.81,1.8-6.156,4.016-7.36L213.331,214.8a2.649,2.649,0,0,1,2.493-.268l.069.067A3.428,3.428,0,0,1,217.347,217.74Z" transform="translate(26.028 -167.485)" fill="#4baaba"/>
        <path id="Path_7" data-name="Path 7" d="M207.262,209.8l6.508,3.613a2.627,2.627,0,0,0-2.492.268L129.16,259.52c-2.215,1.2-4.015,4.55-4.015,7.361v34.195a3.468,3.468,0,0,0,1.384,3.145l-6.578-3.68a3.393,3.393,0,0,1-1.384-3.145V263.2c0-2.81,1.8-6.156,4.015-7.361L204.7,210A2.408,2.408,0,0,1,207.262,209.8Z" transform="translate(28.15 -166.303)" fill="#001c33"/>
        <path id="Path_8" data-name="Path 8" d="M137.425,162.307v39.214c0,3.212-2.008,7.026-4.57,8.431L37.582,263.085l-12.6,7.026a2.853,2.853,0,0,1-2.977.2h-.069a3.986,3.986,0,0,1-1.523-3.547V227.551c0-3.279,2.008-7.026,4.57-8.431l107.874-60.159a3.085,3.085,0,0,1,2.908-.268h.069A3.982,3.982,0,0,1,137.425,162.307ZM83.35,213.03,90,203.662l-8.378,4.417-2.769-7.227-2.77,10.372L67.7,216.108l6.647,2.008-2.354,10.238,6.855-9.1,6.924,1.406Z" transform="translate(52.29 -153.741)" fill="#fff"/>
        <path id="Path_9" data-name="Path 9" d="M158.851,346.15v34.195c0,2.811-1.8,6.156-4.015,7.361l-38.5,21.481a2.692,2.692,0,0,1-2.632.2l-.138-.067a3.481,3.481,0,0,1-1.246-3.011V372.047c0-2.81,1.8-6.156,4.016-7.361l38.5-21.481a2.775,2.775,0,0,1,2.562-.268C158.3,343.406,158.851,344.544,158.851,346.15Z" transform="translate(29.686 -199.064)" fill="#4baaba"/>
        <path id="Path_10" data-name="Path 10" d="M127.087,153.876l6.508,3.68a3.088,3.088,0,0,0-2.908.268L22.813,217.917c-2.493,1.4-4.57,5.153-4.57,8.431v39.214a3.987,3.987,0,0,0,1.523,3.547l-6.578-3.681c-.969-.535-1.593-1.807-1.593-3.547V222.668c0-3.279,2.008-7.026,4.57-8.432L124.11,154.077A2.851,2.851,0,0,1,127.087,153.876Z" transform="translate(54.458 -152.538)" fill="#001c33"/>
        <path id="Path_11" data-name="Path 11" d="M148.744,338.128l6.508,3.681a2.591,2.591,0,0,0-2.562.268l-38.5,21.48c-2.216,1.205-4.016,4.551-4.016,7.361V405.18a3.481,3.481,0,0,0,1.246,3.011l-6.439-3.614A3.342,3.342,0,0,1,103.6,401.5V367.17c0-2.81,1.8-6.156,4.016-7.361l38.5-21.48A2.686,2.686,0,0,1,148.744,338.128Z" transform="translate(31.831 -197.868)" fill="#001c33"/>
        <path id="Path_12" data-name="Path 12" d="M105.35,217.493l-6.578,9.369,2.354,7.629-6.855-1.472-6.924,9.167L89.7,231.881l-6.578-1.941,8.309-4.951,2.839-10.306,2.769,7.227Z" transform="translate(36.867 -167.573)" fill="#4baaba"/>
        <path id="Path_13" data-name="Path 13" d="M68.156,396.759v34.195c0,2.81-1.8,6.156-4.016,7.361L25.712,459.8a2.69,2.69,0,0,1-2.631.2l-.138-.067a3.481,3.481,0,0,1-1.246-3.011V422.723c0-2.81,1.8-6.156,4.016-7.361l38.5-21.48a2.561,2.561,0,0,1,2.562-.2C67.6,394.015,68.156,395.153,68.156,396.759ZM50.638,430.017V417.3L39.214,423.66v12.714Z" transform="translate(51.974 -211.53)" fill="#ff9430"/>
        <path id="Path_14" data-name="Path 14" d="M58.048,388.711l6.578,3.681a2.738,2.738,0,0,0-2.562.2l-38.5,21.481c-2.216,1.205-4.016,4.551-4.016,7.361v34.195A3.482,3.482,0,0,0,20.8,458.64l-6.439-3.613a3.393,3.393,0,0,1-1.385-3.145V417.753c0-2.81,1.8-6.156,4.016-7.36l38.5-21.481A2.562,2.562,0,0,1,58.048,388.711Z" transform="translate(54.119 -210.308)" fill="#001c33"/>
        <path id="Path_15" data-name="Path 15" d="M39.055,317.246v34.195c0,2.81-1.8,6.157-4.016,7.361l-82.048,45.839a2.69,2.69,0,0,1-2.631.2,3.342,3.342,0,0,1-1.385-3.078V367.568c0-2.81,1.8-6.156,4.016-7.361l82.117-45.838a2.563,2.563,0,0,1,2.562-.2C38.5,314.569,39.055,315.64,39.055,317.246ZM-25.06,378.208a15.206,15.206,0,0,0,7.2-12.112c0-4.417-3.254-6.223-7.2-4.015a15.192,15.192,0,0,0-7.2,12.046C-32.261,378.543-29.076,380.417-25.06,378.208Z" transform="translate(69.858 -191.976)" fill="#fff"/>
        <path id="Path_16" data-name="Path 16" d="M28.947,309.205l6.508,3.681a2.738,2.738,0,0,0-2.562.2l-82.048,45.839c-2.216,1.2-4.016,4.55-4.016,7.36v34.2a3.342,3.342,0,0,0,1.385,3.078l-6.578-3.681a3.392,3.392,0,0,1-1.385-3.145V362.539c0-2.81,1.8-6.156,4.016-7.361l82.117-45.838A2.914,2.914,0,0,1,28.947,309.205Z" transform="translate(72.003 -190.761)" fill="#001c33"/>
        <path id="Path_17" data-name="Path 17" d="M56.374,425v12.781L45.019,444.14V431.359Z" transform="translate(46.238 -219.297)" fill="#001c33"/>
        <path id="Path_18" data-name="Path 18" d="M21.687,270.984a1.67,1.67,0,0,1-.554-.134c-1.316-.736-2.008-2.342-2.008-4.417V227.22c0-3.614,2.216-7.7,5.054-9.3l107.874-60.159a4.007,4.007,0,0,1,3.947-.268.979.979,0,0,1,.415,1.339,1.049,1.049,0,0,1-1.384.4,2.19,2.19,0,0,0-1.939.268L25.219,219.658C23,220.863,21.2,224.342,21.2,227.22v39.214a3.173,3.173,0,0,0,1.039,2.677,1.034,1.034,0,0,1,.346,1.4A1.019,1.019,0,0,1,21.687,270.984Z" transform="translate(52.606 -153.41)" fill="#001c33"/>
        <path id="Path_19" data-name="Path 19" d="M23.366,305.495a3.38,3.38,0,0,1-1.662-.4.969.969,0,1,1,.969-1.673,2.2,2.2,0,0,0,1.939-.2l12.6-7.026a.991.991,0,0,1,1.385.4.957.957,0,0,1-.346,1.339l-12.6,7.026A5.7,5.7,0,0,1,23.366,305.495Z" transform="translate(52.104 -187.586)" fill="#001c33"/>
        <path id="Path_20" data-name="Path 20" d="M42.935,263.878a1.088,1.088,0,0,1-.9-.535A.957.957,0,0,1,42.381,262l95.273-53.133c2.216-1.2,4.016-4.684,4.016-7.562V162.1a3,3,0,0,0-1.038-2.677.906.906,0,0,1-.347-1.339.972.972,0,0,1,1.385-.334c1.315.736,2.077,2.342,2.077,4.417v39.214c0,3.613-2.215,7.7-5.054,9.3L43.419,263.81A1.212,1.212,0,0,1,42.935,263.878Z" transform="translate(47.007 -153.53)" fill="#001c33"/>
        <path id="Path_21" data-name="Path 21" d="M87.027,242.863a.912.912,0,0,1-.415-.066.983.983,0,0,1-.554-1.138L88.2,232.29l-5.678-1.74a.92.92,0,0,1-.692-.8.984.984,0,0,1,.485-1l7.962-4.684,2.7-9.971a1.032,1.032,0,0,1,.969-.736,1.066,1.066,0,0,1,1.039.67l2.354,6.156,7.27-3.881a1.066,1.066,0,0,1,1.246.2.979.979,0,0,1,.069,1.271l-6.37,8.967,2.215,7.16a.953.953,0,0,1-1.177,1.2l-6.231-1.271-6.508,8.565A.91.91,0,0,1,87.027,242.863ZM85.3,229.279l4.431,1.338a1.007,1.007,0,0,1,.692,1.2L89.1,237.376l3.947-5.22a1,1,0,0,1,1.039-.4l5.193,1.071-1.87-5.956a1,1,0,0,1,.139-.87l4.154-5.956-4.57,2.409a1.192,1.192,0,0,1-.831.067,1.34,1.34,0,0,1-.623-.6l-1.662-4.282-1.939,7.294a.855.855,0,0,1-.485.6Z" transform="translate(37.187 -167.246)" fill="#001c33"/>
        <path id="Path_22" data-name="Path 22" d="M-48.918,405.776a2.863,2.863,0,0,1-1.523-.4,4.364,4.364,0,0,1-1.869-3.948V367.232A10.168,10.168,0,0,1-47.81,359l82.117-45.839a3.563,3.563,0,0,1,3.531-.268,4.347,4.347,0,0,1,2.008,4.015V351.1a10.168,10.168,0,0,1-4.5,8.231l-82.187,45.839A4.112,4.112,0,0,1-48.918,405.776Zm85.3-91.209a2.085,2.085,0,0,0-1.039.335l-82.187,45.771a8.231,8.231,0,0,0-3.462,6.491V401.36a2.494,2.494,0,0,0,.831,2.209,1.835,1.835,0,0,0,1.593-.2L34.238,357.6A8.23,8.23,0,0,0,37.7,351.1V316.91a2.553,2.553,0,0,0-.9-2.275A.9.9,0,0,0,36.385,314.568Z" transform="translate(70.174 -191.64)" fill="#001c33"/>
        <path id="Path_23" data-name="Path 23" d="M129.306,306.3a3.041,3.041,0,0,1-1.523-.4,4.408,4.408,0,0,1-1.869-4.015v-34.2a10.17,10.17,0,0,1,4.5-8.231l82.118-45.771a3.734,3.734,0,0,1,3.531-.268h.069a.067.067,0,0,1,.069.066,4.41,4.41,0,0,1,1.869,4.015V251.7a10.169,10.169,0,0,1-4.5,8.231L131.452,305.7A4.56,4.56,0,0,1,129.306,306.3Zm85.3-91.21a2.083,2.083,0,0,0-1.038.335l-82.118,45.839a8.232,8.232,0,0,0-3.462,6.491v34.195a2.734,2.734,0,0,0,.831,2.276,1.715,1.715,0,0,0,1.593-.2l82.118-45.838a8.23,8.23,0,0,0,3.462-6.491V217.437a2.736,2.736,0,0,0-.831-2.275A1.776,1.776,0,0,0,214.608,215.095Z" transform="translate(26.344 -167.182)" fill="#001c33"/>
        <path id="Path_24" data-name="Path 24" d="M202.027,361.458a2.866,2.866,0,0,1-1.523-.4,4.364,4.364,0,0,1-1.869-3.948V322.914a10.17,10.17,0,0,1,4.5-8.231l38.5-21.48a3.735,3.735,0,0,1,3.531-.268h.139a4.408,4.408,0,0,1,1.869,4.015v34.195a10.172,10.172,0,0,1-4.5,8.232l-38.5,21.48A4.562,4.562,0,0,1,202.027,361.458Zm41.682-66.918a2.09,2.09,0,0,0-1.038.335l-38.5,21.48a8.231,8.231,0,0,0-3.462,6.491v34.195a2.5,2.5,0,0,0,.83,2.209,1.835,1.835,0,0,0,1.593-.2l38.5-21.48a8.231,8.231,0,0,0,3.462-6.491v-34.2a2.736,2.736,0,0,0-.83-2.275C244.055,294.608,243.847,294.541,243.709,294.541Z" transform="translate(8.46 -186.736)" fill="#001c33"/>
        <path id="Path_25" data-name="Path 25" d="M23.8,460.931a3.045,3.045,0,0,1-1.523-.4l-.069-.067c-.069,0-.069-.067-.138-.067a4.487,4.487,0,0,1-1.662-3.814V422.387a10.168,10.168,0,0,1,4.5-8.231l38.5-21.481a3.684,3.684,0,0,1,3.6-.268,4.347,4.347,0,0,1,2.008,4.015v34.195a10.169,10.169,0,0,1-4.5,8.231L26.02,460.33A5.044,5.044,0,0,1,23.8,460.931Zm-.554-2.141a1.777,1.777,0,0,0,1.662-.2l38.5-21.48a8.23,8.23,0,0,0,3.462-6.491V396.423a2.553,2.553,0,0,0-.9-2.275,1.72,1.72,0,0,0-1.523.2l-38.5,21.48a8.231,8.231,0,0,0-3.462,6.491v34.195A2.693,2.693,0,0,0,23.25,458.791Z" transform="translate(52.29 -211.194)" fill="#001c33"/>
        <path id="Path_26" data-name="Path 26" d="M114.431,410.327a3.043,3.043,0,0,1-1.523-.4l-.069-.067c-.069,0-.069-.067-.139-.067a4.487,4.487,0,0,1-1.661-3.814V371.715a10.167,10.167,0,0,1,4.5-8.231l38.5-21.48a3.682,3.682,0,0,1,3.6-.268,4.306,4.306,0,0,1,1.939,4.015v34.195a10.17,10.17,0,0,1-4.5,8.231l-38.5,21.48A4.011,4.011,0,0,1,114.431,410.327Zm-.554-2.141h0c.554.334,1.246,0,1.662-.2l38.5-21.481a8.23,8.23,0,0,0,3.462-6.491V345.818c0-1.138-.346-2.007-.9-2.275a1.72,1.72,0,0,0-1.523.2l-38.5,21.481a8.231,8.231,0,0,0-3.462,6.491v34.262A2.861,2.861,0,0,0,113.876,408.186Z" transform="translate(30.002 -198.733)" fill="#001c33"/>
        <path id="Path_27" data-name="Path 27" d="M3.36,368.883a1.086,1.086,0,0,1-.9-.535.956.956,0,0,1,.346-1.338L25.24,354.5a1.028,1.028,0,0,1,1.385.334.957.957,0,0,1-.346,1.338L3.845,368.683A.546.546,0,0,1,3.36,368.883Z" transform="translate(56.739 -201.924)" fill="#001c33"/>
        <path id="Path_28" data-name="Path 28" d="M3.36,377.935a1.086,1.086,0,0,1-.9-.535.957.957,0,0,1,.346-1.339L25.24,363.548a1.028,1.028,0,0,1,1.385.334.957.957,0,0,1-.346,1.339L3.845,377.735A.547.547,0,0,1,3.36,377.935Z" transform="translate(56.739 -204.15)" fill="#001c33"/>
        <path id="Path_29" data-name="Path 29" d="M44.658,444.833a1.669,1.669,0,0,1-.554-.133,1.04,1.04,0,0,1-.554-.87V431.115a1.04,1.04,0,0,1,.554-.869l11.424-6.358a.972.972,0,0,1,1.039,0,1.04,1.04,0,0,1,.554.87v12.714a1.039,1.039,0,0,1-.554.87L45.142,444.7A1.313,1.313,0,0,1,44.658,444.833Zm.969-13.183V442.09l9.347-5.22V426.431Z" transform="translate(46.599 -218.986)" fill="#001c33"/>
        <path id="Path_30" data-name="Path 30" d="M19.542,269.855a1.328,1.328,0,0,1-.485-.134l-6.578-3.681c-1.316-.736-2.077-2.342-2.077-4.417V222.41c0-3.613,2.216-7.7,5.124-9.3l107.8-60.226a3.959,3.959,0,0,1,4.016-.2l6.578,3.68a.979.979,0,0,1,.415,1.338,1.05,1.05,0,0,1-1.385.4l-6.646-3.681a2.122,2.122,0,0,0-1.939.2L16.5,214.781c-2.216,1.205-4.085,4.684-4.085,7.562v39.214a3,3,0,0,0,1.039,2.677l6.578,3.68a1.039,1.039,0,0,1,.415,1.406A1.086,1.086,0,0,1,19.542,269.855Z" transform="translate(54.751 -152.213)" fill="#001c33"/>
        <path id="Path_31" data-name="Path 31" d="M126.122,304.833a1.022,1.022,0,0,1-.485-.134l-6.578-3.681A4.408,4.408,0,0,1,117.19,297V262.809a10.17,10.17,0,0,1,4.5-8.231l82.048-45.771a3.636,3.636,0,0,1,3.669-.2l6.578,3.68a.979.979,0,0,1,.415,1.339,1.049,1.049,0,0,1-1.384.4l-6.647-3.681a1.87,1.87,0,0,0-1.593.2l-82.118,45.772a8.23,8.23,0,0,0-3.462,6.491V297a2.736,2.736,0,0,0,.831,2.275l6.578,3.681a.979.979,0,0,1,.415,1.339A.842.842,0,0,1,126.122,304.833Z" transform="translate(28.489 -165.978)" fill="#001c33"/>
        <path id="Path_32" data-name="Path 32" d="M-52.1,404.291a1.024,1.024,0,0,1-.485-.134l-6.578-3.681a4.408,4.408,0,0,1-1.869-4.015V362.267a10.171,10.171,0,0,1,4.5-8.231L25.585,308.2a3.637,3.637,0,0,1,3.67-.2l6.508,3.681a.978.978,0,0,1,.415,1.338,1.121,1.121,0,0,1-1.385.469L28.146,309.8a1.87,1.87,0,0,0-1.592.2l-82.117,45.772a8.228,8.228,0,0,0-3.462,6.491v34.262a2.734,2.734,0,0,0,.831,2.275l6.578,3.681a.9.9,0,0,1,.346,1.338A.844.844,0,0,1-52.1,404.291Z" transform="translate(72.319 -190.422)" fill="#001c33"/>
        <path id="Path_33" data-name="Path 33" d="M20.6,459.445a1.668,1.668,0,0,1-.554-.134l-6.578-3.681a4.409,4.409,0,0,1-1.869-4.015V417.421a10.171,10.171,0,0,1,4.5-8.231l38.5-21.481a3.636,3.636,0,0,1,3.67-.2l6.578,3.68a.979.979,0,0,1,.415,1.338,1.12,1.12,0,0,1-1.385.468l-6.647-3.68a1.715,1.715,0,0,0-1.593.2L17.136,411a8.231,8.231,0,0,0-3.462,6.491v34.195a2.732,2.732,0,0,0,.831,2.275l6.647,3.681a1.035,1.035,0,0,1,.346,1.406A1.4,1.4,0,0,1,20.6,459.445Z" transform="translate(54.458 -209.976)" fill="#001c33"/>
        <path id="Path_34" data-name="Path 34" d="M111.224,408.862a1.667,1.667,0,0,1-.553-.133l-6.578-3.681a4.364,4.364,0,0,1-1.869-3.948V366.838a10.172,10.172,0,0,1,4.5-8.231l38.5-21.48a3.637,3.637,0,0,1,3.67-.2l6.578,3.68a.979.979,0,0,1,.415,1.338,1.12,1.12,0,0,1-1.384.468l-6.647-3.68a1.871,1.871,0,0,0-1.593.2l-38.5,21.48a8.232,8.232,0,0,0-3.462,6.491v34.262a2.5,2.5,0,0,0,.831,2.209l6.647,3.68a1.035,1.035,0,0,1,.346,1.406A1.133,1.133,0,0,1,111.224,408.862Z" transform="translate(32.17 -197.536)" fill="#001c33"/>
        <path id="Path_35" data-name="Path 35" d="M198.843,359.965a1.025,1.025,0,0,1-.485-.133l-6.578-3.681a4.408,4.408,0,0,1-1.869-4.015v-34.2a10.172,10.172,0,0,1,4.5-8.231l38.5-21.48a3.637,3.637,0,0,1,3.67-.2l6.578,3.68a.979.979,0,0,1,.415,1.339,1.05,1.05,0,0,1-1.385.4l-6.578-3.681a1.868,1.868,0,0,0-1.592.2l-38.5,21.48a8.229,8.229,0,0,0-3.462,6.491v34.2a2.736,2.736,0,0,0,.83,2.275l6.578,3.681a.9.9,0,0,1,.346,1.338A.988.988,0,0,1,198.843,359.965Z" transform="translate(10.605 -185.511)" fill="#001c33"/>
        <path id="Path_36" data-name="Path 36" d="M42.936,315.222a1.047,1.047,0,0,1-1.039-1V296.886a1.039,1.039,0,0,1,2.077,0v17.332A1.047,1.047,0,0,1,42.936,315.222Z" transform="translate(47.006 -187.542)" fill="#001c33"/>
        <path id="Path_37" data-name="Path 37" d="M140.724,260.8a1.047,1.047,0,0,1-1.038-1V242.4a1.039,1.039,0,0,1,2.077,0v17.4A1.047,1.047,0,0,1,140.724,260.8Z" transform="translate(22.957 -174.142)" fill="#001c33"/>
        <path id="Path_38" data-name="Path 38" d="M49,400.331a1.047,1.047,0,0,1-1.039-1v-18.4a1.039,1.039,0,0,1,2.077,0v18.4A1.047,1.047,0,0,1,49,400.331Z" transform="translate(45.515 -208.21)" fill="#001c33"/>
        <path id="Path_39" data-name="Path 39" d="M140.081,349.081a1.048,1.048,0,0,1-1.038-1v-18a1.039,1.039,0,0,1,2.077,0v18A1.048,1.048,0,0,1,140.081,349.081Z" transform="translate(23.115 -195.705)" fill="#001c33"/>
        <path id="Path_40" data-name="Path 40" d="M224.739,302.271a1.047,1.047,0,0,1-1.038-1v-18.4a1.039,1.039,0,0,1,2.077,0v18.4A1.048,1.048,0,0,1,224.739,302.271Z" transform="translate(2.295 -184.094)" fill="#001c33"/>
      </g>
      <g id="Group_5" data-name="Group 5" transform="translate(301.629 0)" clip-path="url(#clip-path-2)">
        <path id="Path_41" data-name="Path 41" d="M419.723,215.671l-39.061-24.435-50.07,30.121s-12.291,16.367,14.78,23.667,40.041-9.067,40.041-9.067Z" transform="translate(-324.936 -153.354)" fill="#fff"/>
        <path id="Path_42" data-name="Path 42" d="M438.7,212.379,397.9,188.4l14.629-8.682,40.8,24.05Z" transform="translate(-342.174 -150.523)" fill="#4baaba"/>
        <path id="Path_43" data-name="Path 43" d="M458.1,200.966l-40.8-24.051,14.7-8.605,40.8,23.973Z" transform="translate(-346.945 -147.716)" fill="#4baaba"/>
        <path id="Path_44" data-name="Path 44" d="M436.8,165.5l14.629-8.606,40.8,23.974L477.6,189.476Z" transform="translate(-351.741 -144.909)" fill="#4baaba"/>
        <path id="Path_45" data-name="Path 45" d="M467.209,147.71a22.972,22.972,0,0,1,4.147-1.921l39.89,23.436A19.109,19.109,0,0,1,508,171.684L497,178.139l-40.8-23.974Z" transform="translate(-356.512 -142.178)" fill="#4baaba"/>
        <path id="Path_46" data-name="Path 46" d="M488.667,143.14a43.937,43.937,0,0,1,21.566,5.456c9.8,5.763,11.99,14.138,5.957,19.978L476.3,145.137A37.662,37.662,0,0,1,488.667,143.14Z" transform="translate(-361.455 -141.526)" fill="#4baaba"/>
        <path id="Path_47" data-name="Path 47" d="M483.411,159.748c-.6-4.84-4.147-9.451-10.18-12.986A45.115,45.115,0,0,0,450.759,141a37.9,37.9,0,0,0-12.895,2.074h-.151a21.56,21.56,0,0,0-4.449,2.075L331.541,205.007c-4.9,2.843-7.541,6.916-7.541,11.372,0,5.3,3.77,10.527,10.255,14.292a45.115,45.115,0,0,0,22.471,5.763c6.711,0,12.97-1.46,17.495-4.149l46.752-27.509L435.6,196.17h.075l14.629-8.605h.075L476.021,172.5a18.625,18.625,0,0,0,3.62-2.689A12.029,12.029,0,0,0,483.411,159.748Zm-32.651-14.907a41.857,41.857,0,0,1,20.586,5.225c4.9,2.843,7.918,6.531,8.295,10.143a7.664,7.664,0,0,1-1.81,5.763l-34.612-20.439A39.365,39.365,0,0,1,450.759,144.842Zm-78.423,84.139c-4,2.305-9.5,3.611-15.609,3.611a41.857,41.857,0,0,1-20.586-5.225c-5.279-3.15-8.37-7.146-8.37-10.988,0-3.074,2.036-5.917,5.656-8.069l45.772-26.97,37.025,21.745Zm47.657-28.046-37.025-21.745,10.934-6.455,37.025,21.746Zm14.7-8.606-37.025-21.822,10.859-6.377,37.025,21.822Zm14.629-8.682L412.3,161.824l10.934-6.378,37.025,21.745Zm24.734-14.523-10.029,5.916-37.025-21.745,8.144-4.841a27.733,27.733,0,0,1,3.016-1.46l36.723,21.592A5.1,5.1,0,0,1,474.06,169.123Z" transform="translate(-324 -141)" fill="#001c33"/>
        <path id="Path_48" data-name="Path 48" d="M368.261,230.821l-2.488,1.537c-.075,0-.075.077,0,.154l.679,1.152c.075.077.075.154-.075.231l-1.282.768c-.075.077-.151.077-.226-.077l-1.584-2.613c-.075-.076-.075-.153.075-.23l5.58-3.535c.075-.077.151-.077.226.077l.679,1.153c.075.077.075.23.151.307l1.81,10.527v.154l-.076.077-1.357.845c-.075.077-.151,0-.151-.077Z" transform="translate(-333.649 -162.435)" fill="#4baaba"/>
        <path id="Path_49" data-name="Path 49" d="M379.434,234.258l-.679-1.153c-.075-.077-.075-.077-.075-.154l-.98-9.067c0-.077,0-.153.151-.23l1.357-.845c.075-.077.151-.077.151.077l1.056,8.913,2.262-1.383c.075,0,.075-.077,0-.154l-1.508-2.536c-.075-.077-.075-.154.075-.23l1.357-.845c.075-.077.151-.077.226.077l1.508,2.535c0,.077.075.077.151,0l.754-.461c.075-.077.151-.077.226.077l.754,1.229c0,.077,0,.154-.075.154l-.754.461c-.075,0-.075.077,0,.154l.829,1.306c.076.077.076.154-.075.231l-1.357.922c-.075.077-.151.077-.226-.077l-.829-1.306c0-.077-.075-.077-.151,0l-3.921,2.458C379.585,234.411,379.51,234.411,379.434,234.258Z" transform="translate(-337.206 -161.107)" fill="#4baaba"/>
        <path id="Path_50" data-name="Path 50" d="M389.459,222.213a2.292,2.292,0,0,1-1.357.385,1.827,1.827,0,0,1-1.206-.461c-.075-.077-.151-.153-.226-.153-.075-.077-.151-.154-.151-.231a1.685,1.685,0,0,1-.226-.385c-.075-.153-.226-.384-.377-.615a7.107,7.107,0,0,1-.377-.615,1.67,1.67,0,0,0-.226-.384c-.075-.077-.075-.231-.151-.308a.286.286,0,0,1-.075-.231,1.979,1.979,0,0,1,.151-1.306,3,3,0,0,1,.9-1.076,2.3,2.3,0,0,1,1.357-.384,1.831,1.831,0,0,1,1.207.461c.075.077.151.154.226.154.075.077.151.154.151.231a1.683,1.683,0,0,1,.226.384,6.981,6.981,0,0,0,.377.615,7.127,7.127,0,0,1,.377.615,1.694,1.694,0,0,0,.226.384c.076.077.076.231.151.308,0,.077.075.154.075.23a1.98,1.98,0,0,1-.151,1.307A1.807,1.807,0,0,1,389.459,222.213Zm-.6-1.075a.765.765,0,0,0,.3-.385.99.99,0,0,0,.075-.461v-.154c0-.077-.075-.077-.075-.231-.075-.077-.075-.23-.226-.307a3.36,3.36,0,0,1-.3-.538,3.382,3.382,0,0,0-.3-.538,1.043,1.043,0,0,0-.226-.307c-.075-.077-.075-.154-.151-.154l-.076-.077a.743.743,0,0,0-.9,0,.778.778,0,0,0-.377.845v.154c0,.076.075.076.075.23.075.077.075.231.226.308a3.358,3.358,0,0,1,.3.538,4.479,4.479,0,0,1,.3.538,1.06,1.06,0,0,0,.226.308c.075.077.075.154.151.154l.076.077Q388.29,221.482,388.856,221.138Zm2.639-7.377a.4.4,0,0,1,.151-.307l.98-.615h.151l.075.077.377,13.83a.4.4,0,0,1-.151.308l-.98.615h-.151l-.075-.077Zm4.374,9.835-.151-.153c-.151-.077-.151-.154-.226-.231a1.687,1.687,0,0,1-.226-.385c-.075-.153-.226-.384-.377-.615a7,7,0,0,1-.377-.615,1.661,1.661,0,0,0-.226-.384c-.075-.077-.075-.231-.151-.308,0-.077-.075-.154-.075-.231a1.979,1.979,0,0,1,.151-1.306,3.265,3.265,0,0,1,.98-1.076,2.3,2.3,0,0,1,1.357-.384,1.831,1.831,0,0,1,1.207.461c.075.077.151.154.226.154.075.077.151.154.151.231a1.694,1.694,0,0,1,.226.384,7.13,7.13,0,0,0,.377.615,7.021,7.021,0,0,1,.377.615,1.7,1.7,0,0,0,.226.384v.308c0,.077.075.154.075.23a1.981,1.981,0,0,1-.151,1.307,2.993,2.993,0,0,1-.9,1.075,2.292,2.292,0,0,1-1.357.385A1.519,1.519,0,0,1,395.869,223.6Zm.9-1.075a.678.678,0,0,0,.9,0,.765.765,0,0,0,.3-.385.989.989,0,0,0,.075-.461v-.154c0-.077-.075-.077-.075-.231-.075-.076-.075-.23-.226-.307a3.387,3.387,0,0,1-.3-.538,4.454,4.454,0,0,1-.3-.538,1.066,1.066,0,0,0-.226-.307c-.075-.077-.075-.154-.151-.154l-.075-.077a.743.743,0,0,0-.9,0,.778.778,0,0,0-.377.845v.154c0,.077.075.077.075.23.075.077.075.231.226.308a3.393,3.393,0,0,1,.3.538,4.426,4.426,0,0,1,.3.538,1.068,1.068,0,0,0,.226.307c.075.077.075.154.151.154Z" transform="translate(-339.012 -158.667)" fill="#4baaba"/>
      </g>
      <g id="Group_6" data-name="Group 6" transform="translate(68.62 262.789)" clip-path="url(#clip-path-3)">
        <path id="Path_51" data-name="Path 51" d="M125.214,533.215v11.9a3.648,3.648,0,0,1-2.07,3.053L76.283,575.581c-3.074,1.781-8.469,1.59-11.982-.509l-45.1-26.4c-1.945-1.145-2.948-2.608-2.948-4.007v-11.9c0,1.4,1,2.862,2.948,4.007l45.1,26.4c3.576,2.1,8.908,2.29,11.982.509l46.861-27.417A3.649,3.649,0,0,0,125.214,533.215Z" transform="translate(-15.307 -500.137)" fill="#001c33"/>
        <path id="Path_52" data-name="Path 52" d="M125.214,522.889a3.649,3.649,0,0,1-2.07,3.053L76.283,553.359c-3.074,1.781-8.469,1.59-11.982-.509l-45.1-26.4c-1.945-1.145-2.948-2.608-2.948-4.007a3.651,3.651,0,0,1,2.07-3.054l46.861-27.416c3.074-1.781,8.406-1.527,11.982.509l45.1,26.4C124.211,520.027,125.214,521.489,125.214,522.889Z" transform="translate(-15.307 -489.811)" fill="#4baaba"/>
        <path id="Path_53" data-name="Path 53" d="M70.769,555.206a15.1,15.1,0,0,1-7.277-1.844l-45.1-26.4C16.255,525.689,15,523.908,15,522.127a4.486,4.486,0,0,1,2.572-3.88l46.8-27.417c3.388-1.972,9.1-1.718,12.986.509l45.1,26.4c2.2,1.272,3.387,2.989,3.387,4.834a4.486,4.486,0,0,1-2.572,3.88l-46.8,27.417A11.673,11.673,0,0,1,70.769,555.206Zm-.753-63.8a9.554,9.554,0,0,0-4.7,1.081L18.513,519.9a2.862,2.862,0,0,0-1.631,2.226c0,1.018.941,2.227,2.447,3.181l45.1,26.4c3.262,1.909,8.281,2.1,11.041.509L122.335,524.8a2.764,2.764,0,0,0,1.631-2.226c0-1.081-.941-2.227-2.446-3.181l-45.1-26.4A13.447,13.447,0,0,0,70.017,491.4Z" transform="translate(-15 -489.495)" fill="#001c33"/>
        <path id="Path_54" data-name="Path 54" d="M70.769,577.432a15.1,15.1,0,0,1-7.277-1.844l-45.1-26.4C16.255,547.916,15,546.135,15,544.354v-11.9a.941.941,0,1,1,1.882,0v11.9c0,1.081.941,2.226,2.447,3.181l45.1,26.4c3.262,1.908,8.281,2.1,11.041.508l46.861-27.417a2.766,2.766,0,0,0,1.631-2.227V532.9a.941.941,0,1,1,1.882,0v11.9a4.485,4.485,0,0,1-2.572,3.88L76.478,576.1A11.672,11.672,0,0,1,70.769,577.432Z" transform="translate(-15 -499.825)" fill="#001c33"/>
        <path id="Path_55" data-name="Path 55" d="M72.981,545.329a14.075,14.075,0,0,1-4.893.063,11.668,11.668,0,0,1-4.328-1.463,5.7,5.7,0,0,1-2.509-2.545,3.283,3.283,0,0,1,.125-2.862,6.75,6.75,0,0,1,2.7-2.608,12.036,12.036,0,0,1,3.638-1.4,13.822,13.822,0,0,1,3.952-.318l-.126,2.163a8.693,8.693,0,0,0-4.768,1.018,3.966,3.966,0,0,0-1.631,1.59,2.052,2.052,0,0,0,0,1.717,3.961,3.961,0,0,0,1.631,1.59,9.319,9.319,0,0,0,2.635.954,7.656,7.656,0,0,0,2.948,0,6.867,6.867,0,0,0,2.635-.954c1.317-.763,1.882-1.717,1.694-2.8l3.7-.064a3.239,3.239,0,0,1-.565,2.354,6.889,6.889,0,0,1-2.447,2.1A17.021,17.021,0,0,1,72.981,545.329Z" transform="translate(-26.308 -500.482)" fill="#fff"/>
        <path id="Path_56" data-name="Path 56" d="M89.434,536.164a15.282,15.282,0,0,1-3.388.7l-1.255-1.909a13.5,13.5,0,0,0,5.583-1.717,3.611,3.611,0,0,0,1.506-1.336.778.778,0,0,0-.376-.954,2.125,2.125,0,0,0-1.129-.255,5.262,5.262,0,0,0-1.38.255c-.5.127-1.129.381-1.945.636-1.192.446-2.258.764-3.137,1.018a7.853,7.853,0,0,1-2.76.254,6.3,6.3,0,0,1-2.76-.826A3.019,3.019,0,0,1,76.95,530.5a2.228,2.228,0,0,1,.376-1.908,6.372,6.372,0,0,1,2.447-2.035,17.584,17.584,0,0,1,2.7-1.272,17.243,17.243,0,0,1,2.886-.7l1.317,1.845a13.4,13.4,0,0,0-4.579,1.527c-.816.509-1.317.954-1.443,1.336a.753.753,0,0,0,.439.954,2.436,2.436,0,0,0,1.694.191,18.552,18.552,0,0,0,2.76-.891c1.192-.446,2.258-.763,3.137-1.018a9.516,9.516,0,0,1,2.7-.318,5.827,5.827,0,0,1,2.7.827,2.865,2.865,0,0,1,1.38,1.527,2.193,2.193,0,0,1-.377,1.908,7.675,7.675,0,0,1-2.446,2.1A13.706,13.706,0,0,1,89.434,536.164Z" transform="translate(-30.215 -498.124)" fill="#fff"/>
        <path id="Path_57" data-name="Path 57" d="M104.991,526.969a15.278,15.278,0,0,1-3.387.7l-1.255-1.909a13.5,13.5,0,0,0,5.583-1.717,3.614,3.614,0,0,0,1.506-1.336.777.777,0,0,0-.377-.954,2.124,2.124,0,0,0-1.129-.255,5.261,5.261,0,0,0-1.38.255c-.5.127-1.13.382-1.945.635-1.192.446-2.258.764-3.137,1.018a7.854,7.854,0,0,1-2.76.254,6.3,6.3,0,0,1-2.76-.827,3.021,3.021,0,0,1-1.443-1.527,2.229,2.229,0,0,1,.376-1.909,6.361,6.361,0,0,1,2.447-2.035,17.6,17.6,0,0,1,2.7-1.272,17.236,17.236,0,0,1,2.886-.7l1.317,1.844a13.4,13.4,0,0,0-4.58,1.527c-.816.509-1.317.954-1.443,1.335a.753.753,0,0,0,.439.955,2.436,2.436,0,0,0,1.694.191,18.556,18.556,0,0,0,2.76-.891c1.192-.446,2.258-.764,3.137-1.018a9.508,9.508,0,0,1,2.7-.318,5.827,5.827,0,0,1,2.7.827,2.86,2.86,0,0,1,1.38,1.527,2.19,2.19,0,0,1-.376,1.908,7.678,7.678,0,0,1-2.446,2.1A8.926,8.926,0,0,1,104.991,526.969Z" transform="translate(-34.04 -495.863)" fill="#fff"/>
      </g>
      <path id="Path_58" data-name="Path 58" d="M95.229,725.984c-9.143,11.49-23.364,10.221-29.333,8.151,4.876-4.037,11.174-12.033,13.714-15.527l-.762-3.494c-12.952-13.586-21.333-22.9-25.143-39.206s1.143-36.1,8-39.594,12.19-5.046,47.618,7.764,53.332,56.286,47.237,81.129c-4.876,19.875-18.54,22.256-24.761,20.962Z" transform="translate(44.427 -262.205)" fill="#fff" stroke="#fff" stroke-width="1"/>
      <path id="Path_59" data-name="Path 59" d="M479.585,211.176a1.626,1.626,0,0,0,1.824-1.393,6.788,6.788,0,0,0,.13-1.062l10.75,6.368.065.066-.065-.066a7.1,7.1,0,0,0-6.646-.2l-6.581-3.98A.8.8,0,0,0,479.585,211.176Z" transform="translate(-60.506 -157.655)" fill="#001c33"/>
      <path id="Path_60" data-name="Path 60" d="M494.437,216.866l.065.066a1.7,1.7,0,0,1,.521,2.189,1.592,1.592,0,0,1-2.215.6l-5.017-3.052A7.1,7.1,0,0,1,494.437,216.866Z" transform="translate(-62.652 -159.431)" fill="#001c33"/>
      <path id="Path_61" data-name="Path 61" d="M481.124,209.09a1.58,1.58,0,0,1-1.824,1.394,2.056,2.056,0,0,1-.587-.2,1.568,1.568,0,0,1-.781-1.659c.13-.862.26-1.658.391-2.454l3,1.791C481.254,208.427,481.189,208.758,481.124,209.09Z" transform="translate(-60.221 -157.028)" fill="#001c33"/>
      <path id="Path_62" data-name="Path 62" d="M136.244,363.986l62.856-38.43c60.7-34.16,184.987-103.489,196.568-107.525s14.73,3.494,14.857,7.763V420.66l-8,13.586L170.91,570.5l-34.666-19.8Z" transform="translate(23.803 -159.661)" fill="#fff"/>
      <path id="Path_63" data-name="Path 63" d="M355.691,267.574a9.529,9.529,0,0,1-1.824.928c2.476-3.383,4.691-6.435,6.906-9.286a9.844,9.844,0,0,1-.326,1.924C358.949,263.2,357.385,265.319,355.691,267.574Z" transform="translate(-29.717 -170.073)" fill="#deeefa"/>
      <path id="Path_64" data-name="Path 64" d="M334.969,271.952c-.521.663-1.173,1.393-1.824,2.123-.131.2-.326.4-.456.6-.716.4-1.434.73-2.15,1.128.652-.8,1.3-1.525,1.955-2.322s1.3-1.525,1.824-2.123Z" transform="translate(-23.98 -173.058)" fill="#deeefa"/>
      <path id="Path_65" data-name="Path 65" d="M117.093,626.024a75.73,75.73,0,0,0-8.8-.2h-.261a7.545,7.545,0,0,1-1.108-.929H108.3a83.734,83.734,0,0,1,9.382.265l-.066.531A5.98,5.98,0,0,1,117.093,626.024Z" transform="translate(31.013 -260.003)" fill="#deeefa"/>
      <path id="Path_66" data-name="Path 66" d="M448.588,568.228l-.716-.6Z" transform="translate(-52.835 -245.921)" fill="#deeefa"/>
      <path id="Path_67" data-name="Path 67" d="M488.568,537.365l5.343-7.032a4.982,4.982,0,0,1,1.042.133l-5.668,7.429Z" transform="translate(-62.843 -236.748)" fill="#deeefa"/>
      <path id="Path_68" data-name="Path 68" d="M356.618,614.783h3.844v.928H355.25A16.471,16.471,0,0,1,356.618,614.783Z" transform="translate(-30.057 -257.517)" fill="#deeefa"/>
      <path id="Path_69" data-name="Path 69" d="M365.53,609.218c.066,0,.066-.066.13-.066v.066Z" transform="translate(-32.585 -256.132)" fill="#deeefa"/>
      <path id="Path_70" data-name="Path 70" d="M393.353,592.354l1.369-.8c-.261.332-.521.729-.847,1.194Z" transform="translate(-39.427 -251.805)" fill="#deeefa"/>
      <path id="Path_71" data-name="Path 71" d="M405.757,585.225l-.066.6c-.26,0-.586-.066-.847-.066C405.171,585.557,405.5,585.424,405.757,585.225Z" transform="translate(-42.254 -250.248)" fill="#deeefa"/>
      <path id="Path_72" data-name="Path 72" d="M400.942,590.305h.847l-.2.929a1.74,1.74,0,0,0-.587,0h-.391a1.9,1.9,0,0,1-.782-.133l.326-.863A2.872,2.872,0,0,0,400.942,590.305Z" transform="translate(-41.021 -251.481)" fill="#deeefa"/>
      <path id="Path_73" data-name="Path 73" d="M88.62,745.855a16.553,16.553,0,0,1-.13,1.791l-.391.6-.782-.531a20.042,20.042,0,0,1,1.173-1.658C88.555,745.988,88.62,745.921,88.62,745.855Z" transform="translate(35.836 -289.751)" fill="#deeefa"/>
      <path id="Path_74" data-name="Path 74" d="M213.076,715.835l-.13.2v-.265Z" transform="translate(4.94 -282.352)" fill="#deeefa"/>
      <path id="Path_77" data-name="Path 77" d="M56.865,695.1c-.065.067-.13.2-.2.266l-.717-.531.586-.8C56.669,694.373,56.734,694.77,56.865,695.1Z" transform="translate(43.549 -277.009)" fill="#deeefa"/>
      <path id="Path_80" data-name="Path 80" d="M304.909,505.4c-11.988,5.97-27.1,6.7-38.832-.464-6.189-3.781-11.206-9.553-13.161-16.716-2.15-7.761-1.433-16.65-.652-24.61.847-8.624,2.476-17.181,4.17-25.672,1.563-7.695,2.737-15.323,6.059-22.554,5.994-12.935,17.982-24.013,31.86-27.064,4.691-1.061,6.515,5.7,1.955,7.3-10.229,3.648-19.285,9.884-25.019,19.369-6.906,11.476-7.883,26.4-9.121,39.4a139.718,139.718,0,0,0-.652,22.156c.391,6.3,1.369,12.006,6.059,16.451,8.079,7.694,20.524,8.292,30.623,5.107a51.537,51.537,0,0,0,16.744-9.552c5.212-4.312,9.513-9.552,14.464-14.129a.671.671,0,0,1,1.108.663C327,487.884,316.31,499.691,304.909,505.4Z" transform="translate(-4.539 -201.795)" fill="#deeefa"/>
      <path id="Path_81" data-name="Path 81" d="M171.167,619.068a39.07,39.07,0,0,1-10.425-4.776l-3.518-1.791c-4.04-2.189-8.4-4.245-11.077-8.093-1.824-2.586,1.173-5.506,3.779-4.975.652.133,1.237.332,1.889.531-.13-.531-.2-1-.326-1.526-2.15-12.139-1.368-25.008-1.3-37.213.066-13.067.2-26.2.066-39.27-.066-6.566-.13-13.067-.261-19.634-.2-6.766.261-13.466.326-20.232,0-.73,1.173-.929,1.3-.2,1.238,5.9,2.606,11.741,3.388,17.711.782,5.837,1.173,11.807,1.694,17.712.977,12.205,1.564,24.411,1.955,36.682.326,12.006.587,24.079.587,36.085,0,4.643.13,9.619,2.672,13.6a12.958,12.958,0,0,0,4.756,4.312c1.5.8,3.062,1.526,4.625,2.189.717.265,1.434.6,2.151.862C178.138,612.9,176.184,620.727,171.167,619.068Z" transform="translate(21.505 -224.722)" fill="#deeefa"/>
      <path id="Path_82" data-name="Path 82" d="M181.062,622.36l.066-.066,50.885-29.917c0,5.241,3.648,7.364,8.079,4.776,4.5-2.653,8.079-9.022,8.079-14.262L420.436,481.6v26.069c0,7.231-4.3,15.589-9.577,18.706L199.24,650.684A70.786,70.786,0,0,0,181.062,622.36Zm219.5-103.747a11.439,11.439,0,0,0,5.017-8.823c0-3.25-2.215-4.577-5.017-2.918a11.438,11.438,0,0,0-5.017,8.822C395.547,518.879,397.827,520.205,400.564,518.613Zm-27.1,10.414,7.688,1.127c.261.066.652-.4.652-.8V518.016c0-.4-.326-.4-.652-.066L373.46,528.1C373.2,528.563,373.2,529.028,373.46,529.028Z" transform="translate(12.781 -224.763)" fill="#deeefa"/>
      <path id="Path_83" data-name="Path 83" d="M65.629,634.7l18.5-10.613c5.408-3.118,12.835-2.587,20.979,2.189l2.02,1.194L129.154,640.4l16.093,9.419a49.358,49.358,0,0,1,8.339,6.3,71.977,71.977,0,0,1,18.178,28.324,56.06,56.06,0,0,1,3.322,18.043v8.226c0,9.751-3.388,16.583-8.861,19.767l-18.7,10.746c5.473-3.118,8.861-10.016,8.861-19.768v-8.225c0-19.369-13.357-42.984-29.906-52.669L86.348,636.954C78.334,632.245,71.037,631.714,65.629,634.7Z" transform="translate(41.169 -259.324)" fill="#001c33"/>
      <path id="Path_84" data-name="Path 84" d="M121.231,522.99V363.921a22.067,22.067,0,0,1,.587-4.975c1.368-5.7,4.886-11.277,8.991-13.665l3.584-2.123,9.252-5.44,23.651-13.93,9.512-5.572L374.938,201.734c2.411-1.459,4.626-1.525,6.32-.531l10.425,6.3,11.662,6.965c-1.377-.809,4.153,2.271.725,3.047a7.553,7.553,0,0,0-7.045-2.583L152.9,358.415c-5.278,3.118-9.577,11.476-9.577,18.706V535.858l-.456.8L120.84,523.719Z" transform="translate(27.591 -155.641)" fill="#001c33"/>
      <path id="Path_85" data-name="Path 85" d="M258.091,627.2c-4.5,2.654-8.079.531-8.079-4.776,0-5.241,3.648-11.675,8.079-14.262,4.5-2.653,8.078-.531,8.078,4.776C266.169,618.181,262.521,624.615,258.091,627.2Z" transform="translate(-4.176 -255.608)" fill="#001c33"/>
      <path id="Path_86" data-name="Path 86" d="M259.6,459.109c0-32.105,22.152-71.11,49.451-87.162s49.452-3.052,49.452,29.054-22.152,71.11-49.452,87.163S259.6,491.215,259.6,459.109Zm63.916-11.542v-51.94c0-1.724-1.629-1.857-2.867-.2l-35.183,46.633c-1.172,1.592-1.172,3.582,0,3.781l35.183,5.306C321.89,451.282,323.519,449.292,323.519,447.567Z" transform="translate(-6.534 -196.105)" fill="#4baaba"/>
      <path id="Path_87" data-name="Path 87" d="M293.617,451.573,328.8,404.941c1.237-1.658,2.866-1.593,2.866.2v51.939c0,1.725-1.629,3.782-2.866,3.583l-35.183-5.307C292.445,455.155,292.445,453.165,293.617,451.573Z" transform="translate(-14.683 -205.617)" fill="#fff"/>
      <path id="Path_88" data-name="Path 88" d="M445.043,528.935c.261-.332.651-.332.651.066v11.276a.791.791,0,0,1-.651.8l-7.688-1.128c-.261-.066-.261-.464,0-.8Z" transform="translate(-50.201 -236.345)" fill="#001c33"/>
      <path id="Path_89" data-name="Path 89" d="M471.813,513.835c2.736-1.592,5.017-.332,5.017,2.918a11.158,11.158,0,0,1-5.017,8.823c-2.736,1.593-5.017.332-5.017-2.918A11.333,11.333,0,0,1,471.813,513.835Z" transform="translate(-57.489 -232.522)" fill="#001c33"/>
      <path id="Path_90" data-name="Path 90" d="M193.867,585.089c-.2-.6-.455-1.26-.652-1.857L403.14,459.851c4.691-2.786,8.731-10.746,8.731-17.247v-23.15l2.476-1.46a1.653,1.653,0,0,0,.587-2.255,1.592,1.592,0,0,0-2.215-.6l-.781.464V227.218c0-3.184-.912-5.506-2.476-6.434s-3.388-.265-4.691.464L160.639,364.728c-4.756,2.786-8.8,10.68-8.8,17.247v158.87l-3.258-1.924V381.975c0-7.828,4.561-16.65,10.424-20.1L403.075,218.329a12.07,12.07,0,0,1,1.3-.664l5.017,3.052a1.593,1.593,0,0,0,2.215-.6,1.63,1.63,0,0,0-.522-2.189c2.606,1.592,4.04,4.909,4.04,9.221V256.8a1.193,1.193,0,0,1-.326-.465,1.568,1.568,0,0,0-2.28-.265,1.634,1.634,0,0,0-.26,2.321c.912,1.261,1.889,2.388,2.866,3.516V442.6c0,7.828-4.561,16.65-10.424,20.1L194.323,586.416C194.128,585.952,194,585.487,193.867,585.089Z" transform="translate(20.768 -159.854)" fill="#001c33"/>
      <path id="Path_91" data-name="Path 91" d="M257.442,458.549c0-32.57,22.543-72.3,50.233-88.622,13.747-8.093,26.713-9.353,36.551-3.516,9.839,5.771,15.311,17.844,15.311,34.029,0,32.57-22.543,72.3-50.233,88.623-8.079,4.709-15.833,7.1-22.869,7.1a26.71,26.71,0,0,1-13.682-3.582C262.915,486.808,257.442,474.735,257.442,458.549Zm16.939,31.177c8.8,5.174,20.654,3.914,33.359-3.516,26.779-15.787,48.6-54.2,48.6-85.7,0-14.925-4.822-25.936-13.682-31.111a23.215,23.215,0,0,0-12.054-3.117c-6.45,0-13.747,2.255-21.24,6.7-26.778,15.721-48.6,54.2-48.6,85.7C260.7,473.475,265.586,484.553,274.381,489.726Z" transform="translate(-6.003 -195.545)" fill="#4baaba"/>
      <path id="Path_92" data-name="Path 92" d="M326.966,403.4c1.107-1.525,2.671-2.189,3.974-1.725a2.928,2.928,0,0,1,1.824,2.919v51.939a5.835,5.835,0,0,1-2.019,4.245,3.51,3.51,0,0,1-2.346,1h-.391l-35.183-5.307a2.488,2.488,0,0,1-2.02-1.658,5.356,5.356,0,0,1,.977-4.776Zm1.433,55.058a2.541,2.541,0,0,0,1.108-1.924V405.457l-35.183,46.633a3.474,3.474,0,0,0-.521,1.194Z" transform="translate(-14.152 -205.072)" fill="#fff"/>
      <path id="Path_93" data-name="Path 93" d="M273.494,581.554a10.941,10.941,0,0,0-.326-2.654l169.269-99.5v3.847l-168.943,99.3Z" transform="translate(-9.87 -224.222)" fill="#001c33"/>
      <path id="Path_94" data-name="Path 94" d="M498.388,478.621a1.591,1.591,0,0,1,2.215.6,5.356,5.356,0,0,1,.291,2.649L497.5,511.653V479.228Z" transform="translate(-65.04 -223.975)" fill="#001c33"/>
      <path id="Path_95" data-name="Path 95" d="M231.164,627.125a10.938,10.938,0,0,0,.326,2.654L184.515,657.44c-.521-.531.908,6.76.387,6.3-.326-.265-4.576-7.586-4.9-7.918l51.23-29.688A5.787,5.787,0,0,0,231.164,627.125Z" transform="translate(13.042 -260.307)" fill="#001c33"/>
      <path id="Path_96" data-name="Path 96" d="M250.849,621.1a1.591,1.591,0,0,0-2.215-.6l-.782.464c.391-5.639,4.169-11.94,8.86-14.726,2.672-1.592,5.278-1.791,7.363-.6a6.363,6.363,0,0,1,2.867,4.113l-2.085,1.261a1.652,1.652,0,0,0-.587,2.255,1.628,1.628,0,0,0,1.433.8,1.525,1.525,0,0,0,.782-.2l.782-.465c-.391,5.639-4.17,11.941-8.861,14.726a8.665,8.665,0,0,1-4.431,1.327,5.733,5.733,0,0,1-2.932-.8,6.363,6.363,0,0,1-2.866-4.113l2.085-1.26A1.562,1.562,0,0,0,250.849,621.1Zm1.824,4.709c.977.6,2.476.4,4.105-.6,3.974-2.322,7.3-8.225,7.3-12.869,0-1.924-.587-3.316-1.564-3.914a2.716,2.716,0,0,0-1.3-.332,5.789,5.789,0,0,0-2.8.929c-3.975,2.321-7.3,8.225-7.3,12.868C251.11,623.822,251.631,625.216,252.673,625.812Z" transform="translate(-3.644 -255.081)" fill="#001c33"/>
      <path id="Path_97" data-name="Path 97" d="M270.9,615.663a1.629,1.629,0,0,1-1.434-.8,1.653,1.653,0,0,1,.587-2.255l2.085-1.261a11.382,11.382,0,0,1,.326,2.654,5.078,5.078,0,0,1-.066,1l-.782.464A1.153,1.153,0,0,1,270.9,615.663Z" transform="translate(-8.905 -256.673)" fill="#001c33"/>
      <path id="Path_98" data-name="Path 98" d="M247.851,625.992l.782-.464a1.591,1.591,0,0,1,2.215.6,1.652,1.652,0,0,1-.586,2.255l-2.085,1.261a11.374,11.374,0,0,1-.326-2.654Z" transform="translate(-3.644 -260.103)" fill="#001c33"/>
      <path id="Path_99" data-name="Path 99" d="M443.294,527.317a2.121,2.121,0,0,1,2.28-.8,1.874,1.874,0,0,1,1.238,1.857v11.343a2.629,2.629,0,0,1-.848,1.924,2.08,2.08,0,0,1-1.368.531h-.261l-7.688-1.127a1.943,1.943,0,0,1-1.434-1.128,2.535,2.535,0,0,1,.391-2.322Zm.261,11.344v-6.236l-4.236,5.638Z" transform="translate(-49.69 -235.788)" fill="#001c33"/>
      <path id="Path_100" data-name="Path 100" d="M470.52,511.83a5.014,5.014,0,0,1,5.147-.332,5.286,5.286,0,0,1,2.28,4.71,12.989,12.989,0,0,1-5.8,10.282,6.263,6.263,0,0,1-3.062.928,4.237,4.237,0,0,1-2.085-.53,5.284,5.284,0,0,1-2.28-4.71A12.676,12.676,0,0,1,470.52,511.83Zm-1.955,12.139c.391.265,1.108.133,1.889-.332a9.558,9.558,0,0,0,4.17-7.429,2.232,2.232,0,0,0-.652-1.857,1.209,1.209,0,0,0-.521-.133,2.766,2.766,0,0,0-1.433.465,9.559,9.559,0,0,0-4.17,7.429C467.914,523.041,468.174,523.77,468.566,523.969Z" transform="translate(-56.979 -231.977)" fill="#001c33"/>
      <path id="Path_101" data-name="Path 101" d="M419.262,543.968a1.628,1.628,0,0,1,1.629,1.658v10.879a1.629,1.629,0,1,1-3.258,0V545.626A1.67,1.67,0,0,1,419.262,543.968Z" transform="translate(-45.398 -240.101)" fill="#001c33"/>
      <path id="Path_102" data-name="Path 102" d="M410.967,548.894a1.627,1.627,0,0,1,1.629,1.658v10.879a1.629,1.629,0,1,1-3.258,0V550.552A1.627,1.627,0,0,1,410.967,548.894Z" transform="translate(-43.358 -241.313)" fill="#001c33"/>
      <path id="Path_103" data-name="Path 103" d="M406.327,208.426l-10.424-6.3c-1.564-.929-3.388-.265-4.691.465l-198.2,116.482-9.448,5.573c.066,0,.066-.066.13-.066l.13-.133.065-.066.13-.133c0-.066.065-.066.065-.133s.066-.066.066-.133.065-.066.065-.133a.232.232,0,0,1,.066-.133V320.4l6.254-3.648v.928a1.629,1.629,0,1,0,3.258,0v-2.852l195.786-115.09c2.867-1.658,5.668-1.857,7.949-.465l8.4,5.042c-.131.8-.326,1.592-.391,2.454A1.792,1.792,0,0,0,406.327,208.426Z" transform="translate(12.165 -155.103)" fill="#001c33"/>
      <path id="Path_104" data-name="Path 104" d="M131.529,386.568c-3.584,2.123-6.907,7.23-8.21,12.67a1.322,1.322,0,0,0-.065-.863,1.6,1.6,0,0,0-2.02-1.061,1.092,1.092,0,0,0-.326.133h-.065a1.916,1.916,0,0,1-.522.265c1.629-6.1,5.343-11.542,9.578-14l3.062-1.791c-.065.2-.13.332-.2.531a1.624,1.624,0,0,0,.912,2.123,1.871,1.871,0,0,0,.586.133,1.608,1.608,0,0,0,1.5-1.062,34.257,34.257,0,0,0,1.3-4.179l4.17-2.455c.26.531.586,1.062.912,1.593a1.512,1.512,0,0,0,1.3.663,1.921,1.921,0,0,0,.977-.331,1.637,1.637,0,0,0,.326-2.322,7.876,7.876,0,0,1-.716-1.261l11.923-7.031c.261-.133.587-.266.848-.4a9.578,9.578,0,0,0,.847-.6l7.753-4.577v1.194c0,.066,0,.133.065.133,0,.066,0,.133.066.133,0,.066.065.133.065.2a.065.065,0,0,0,.065.066,1.169,1.169,0,0,0,.261.331c.13.066.2.2.326.265a.064.064,0,0,1,.065.066c.066.066.2.066.326.133h.066c.13,0,.26.066.391.066a.815.815,0,0,0,.391-.066h.065c.13-.066.261-.066.326-.133l.065-.066h-.065Z" transform="translate(27.719 -195.536)" fill="#001c33"/>
      <path id="Path_105" data-name="Path 105" d="M122.282,426.549a1.592,1.592,0,0,0-2.215-.6l-.781.464v-7.364l2.476-1.459a1.653,1.653,0,0,0,.587-2.255,1.592,1.592,0,0,0-2.215-.6l-.782.465a16.5,16.5,0,0,1,.13-1.725,16.211,16.211,0,0,0,2.867-1.393,1.5,1.5,0,0,0,.847-1.128,19.6,19.6,0,0,0-.587,4.577v159.2l-3.258-.115V430.263l2.476-1.459A1.825,1.825,0,0,0,122.282,426.549Z" transform="translate(27.974 -207.391)" fill="#001c33"/>
      <path id="Path_106" data-name="Path 106" d="M183.482,365.9a.064.064,0,0,0,.065-.066Z" transform="translate(12.186 -196.293)" fill="#001c33"/>
      <path id="Path_107" data-name="Path 107" d="M180.525,365.02a.065.065,0,0,0-.066-.066l.066.066C180.589,365.087,180.525,365.087,180.525,365.02Z" transform="translate(12.929 -196.077)" fill="#001c33"/>
      <path id="Path_108" data-name="Path 108" d="M498.225,267.8a1.561,1.561,0,0,1,2.28.265,1.185,1.185,0,0,1,.326.464v5.107c-.977-1.127-1.954-2.256-2.932-3.449A1.919,1.919,0,0,1,498.225,267.8Z" transform="translate(-65.072 -172.092)" fill="#001c33"/>
      <path id="Path_109" data-name="Path 109" d="M60.495,638.622a1.614,1.614,0,0,0,2.215.663l.2-.133,8.47-4.842a29.794,29.794,0,0,1,12.379,4.311l40.135,23.615c16.94,9.95,30.687,34.228,30.687,54.129v8.225a30.7,30.7,0,0,1-2.671,13.333l-8.666,4.975a1.653,1.653,0,0,0-.586,2.255,1.692,1.692,0,0,0,1.433.862,1.3,1.3,0,0,0,.716-.2,16.528,16.528,0,0,1-8.4,2.123c-4.365,0-9.187-1.46-14.138-4.378L95.547,727.908c-7.362,8.425-18.7,11.145-31.339,7.43a1.627,1.627,0,0,1-1.173-1.526,1.6,1.6,0,0,1,1.042-1.592c6.32-2.388,11.206-7.429,14.2-14.726-15.441-11.276-26.908-33.167-26.908-51.608V657.66c0-10.016,3.388-17.512,9.578-21.094A1.526,1.526,0,0,0,60.495,638.622Zm-5.8,18.972v8.225c0,17.579,11.662,39.336,26.517,49.618a1.6,1.6,0,0,1,.586,1.924c-2.606,7.032-6.776,12.4-12.184,15.722,10.1,1.725,18.634-1.194,24.3-8.424a1.594,1.594,0,0,1,2.085-.4l27.886,16.385c7.428,4.378,14.269,5.108,19.35,2.189,5.213-2.985,8.079-9.486,8.079-18.308V716.3c0-18.839-13.03-41.857-29.058-51.276L82.126,641.408c-4.43-2.587-8.731-3.914-12.51-3.914a13.451,13.451,0,0,0-6.711,1.658C57.628,642.072,54.7,648.639,54.7,657.594Z" transform="translate(44.675 -262.319)" fill="#001c33"/>
      <path id="Path_110" data-name="Path 110" d="M89.056,686.219a4.61,4.61,0,0,1,4.756.332,11.633,11.633,0,0,1,5.212,9.221,4.734,4.734,0,0,1-2.085,4.312,3.923,3.923,0,0,1-1.954.531,5.277,5.277,0,0,1-2.8-.863,11.631,11.631,0,0,1-5.212-9.221A4.888,4.888,0,0,1,89.056,686.219Zm4.756,10.68c.717.464,1.238.464,1.5.332s.456-.6.456-1.459a8.375,8.375,0,0,0-3.583-6.3c-.717-.464-1.238-.464-1.5-.332s-.456.6-.456,1.459A8.489,8.489,0,0,0,93.812,696.9Z" transform="translate(35.921 -274.958)" fill="#001c33"/>
      <path id="Path_111" data-name="Path 111" d="M113.94,700.909a4.609,4.609,0,0,1,4.757.332,11.633,11.633,0,0,1,5.212,9.221,4.807,4.807,0,0,1-2.085,4.311,3.926,3.926,0,0,1-1.955.531,5.281,5.281,0,0,1-2.8-.862,11.635,11.635,0,0,1-5.213-9.221A4.734,4.734,0,0,1,113.94,700.909Zm4.757,10.614c.716.464,1.237.464,1.5.332a1.83,1.83,0,0,0,.456-1.459,8.376,8.376,0,0,0-3.583-6.3,2.445,2.445,0,0,0-1.173-.4.483.483,0,0,0-.326.066c-.26.133-.455.6-.455,1.459A8.185,8.185,0,0,0,118.7,711.523Z" transform="translate(29.801 -278.571)" fill="#001c33"/>
      <path id="Path_112" data-name="Path 112" d="M138.823,715.512a4.614,4.614,0,0,1,4.756.332,11.631,11.631,0,0,1,5.213,9.221,4.734,4.734,0,0,1-2.085,4.312,3.935,3.935,0,0,1-1.955.53,5.282,5.282,0,0,1-2.8-.862,11.632,11.632,0,0,1-5.212-9.221A4.888,4.888,0,0,1,138.823,715.512Zm4.756,10.68c.717.465,1.238.465,1.5.332s.456-.6.456-1.459a8.375,8.375,0,0,0-3.584-6.3,2.439,2.439,0,0,0-1.173-.4.481.481,0,0,0-.326.067c-.26.133-.456.6-.456,1.459A8.49,8.49,0,0,0,143.579,726.192Z" transform="translate(23.682 -282.162)" fill="#001c33"/>
      <path id="Path_113" data-name="Path 113" d="M107.315,627.807a1.644,1.644,0,0,0,1.629-1.525l18.764,11.078v1.791a1.627,1.627,0,0,0,1.629,1.658,1.645,1.645,0,0,0,1.629-1.525l14.79,8.69a49.4,49.4,0,0,1,7.753,5.7l-.912.531a1.653,1.653,0,0,0-.587,2.255,1.628,1.628,0,0,0,1.433.8,1.528,1.528,0,0,0,.782-.2L156.049,656A74.5,74.5,0,0,1,172.4,681.6l-1.694,1a1.653,1.653,0,0,0-.586,2.255,1.627,1.627,0,0,0,1.433.8,1.523,1.523,0,0,0,.781-.2l1.173-.663a55.937,55.937,0,0,1,3,17.247v8.225c0,10.083-3.453,17.578-9.708,21.226l-18.7,10.746h-.066s-3.192.266.066-.066c1.884-1.062-1.547,1.167-3.583,1.327-1.273.1-1.6-1.327-.977-2.653l21.7-12.272c5.212-2.985,8.014-9.486,8.014-18.308v-8.225a54.225,54.225,0,0,0-3.193-17.446,69.924,69.924,0,0,0-17.787-27.662,44.719,44.719,0,0,0-8.078-6.1l-40.135-23.615c-7.428-4.378-14.269-5.108-19.416-2.189l-10.034,5.771a17.163,17.163,0,0,0-10.034,1.99c-.13.066-.2.132-.326.2.065,0,.065-.066.13-.066l18.7-10.746c6.124-3.516,14.2-2.72,22.608,2.189l.065.066v1.791A1.556,1.556,0,0,0,107.315,627.807Z" transform="translate(41.509 -258.801)" fill="#001c33"/>
      <path id="Path_114" data-name="Path 114" d="M206.011,705.74a1.627,1.627,0,0,1-1.433-.8,1.652,1.652,0,0,1,.586-2.255l1.694-1c.26.6.455,1.26.652,1.857a10.465,10.465,0,0,0,.456,1.327l-1.173.663A1.708,1.708,0,0,1,206.011,705.74Z" transform="translate(7.053 -278.891)" fill="#001c33"/>
      <path id="Path_115" data-name="Path 115" d="M150.032,646.381a1.627,1.627,0,0,1-1.629-1.658v-1.791l3.258,1.924A1.645,1.645,0,0,1,150.032,646.381Z" transform="translate(20.813 -264.44)" fill="#001c33"/>
      <path id="Path_116" data-name="Path 116" d="M184.511,666.894l-1.824,1.061a1.71,1.71,0,0,1-.782.2,1.629,1.629,0,0,1-1.434-.8,1.653,1.653,0,0,1,.587-2.255l.913-.53a10.906,10.906,0,0,1,.912.862A17.134,17.134,0,0,1,184.511,666.894Z" transform="translate(12.981 -269.761)" fill="#001c33"/>
      <path id="Path_117" data-name="Path 117" d="M120.828,629.228a1.628,1.628,0,0,1-1.629-1.658v-1.791l3.258,1.924A1.7,1.7,0,0,1,120.828,629.228Z" transform="translate(27.995 -260.221)" fill="#001c33"/>
      <path id="Path_118" data-name="Path 118" d="M74.285,634.282l-8.47,4.843-.2.133a1.615,1.615,0,0,1-2.215-.663,1.712,1.712,0,0,1,.521-2.189c.13-.066.2-.133.326-.2A17.135,17.135,0,0,1,74.285,634.282Z" transform="translate(41.765 -262.29)" fill="#001c33"/>
      <path id="Path_119" data-name="Path 119" d="M119.959,430.766a1.592,1.592,0,0,1,2.215.6,1.653,1.653,0,0,1-.587,2.255l-2.476,1.459v-3.847Z" transform="translate(28.016 -212.206)" fill="#001c33"/>
      <path id="Path_120" data-name="Path 120" d="M194.53,357.324a1.628,1.628,0,0,1-1.629-1.658v-.929l.781-.464,2.476-1.46v2.853A1.628,1.628,0,0,1,194.53,357.324Z" transform="translate(9.87 -193.091)" fill="#001c33"/>
      <path id="Path_121" data-name="Path 121" d="M181.322,361.575h0l2.476-1.46v2.919a1.864,1.864,0,0,0-.2-.863A1.729,1.729,0,0,0,181.322,361.575Z" transform="translate(12.717 -194.887)" fill="#001c33"/>
      <path id="Path_122" data-name="Path 122" d="M180.285,363.6v-1l.782-.464A1.673,1.673,0,0,0,180.285,363.6Z" transform="translate(12.972 -195.384)" fill="#001c33"/>
      <path id="Path_123" data-name="Path 123" d="M182.708,366.1c-.13,0-.261.066-.391.066a.813.813,0,0,1-.391-.066c.13,0,.261.066.391.066A.815.815,0,0,0,182.708,366.1Z" transform="translate(12.569 -196.358)" fill="#001c33"/>
      <path id="Path_124" data-name="Path 124" d="M119.178,416.365l.781-.465a1.592,1.592,0,0,1,2.215.6,1.653,1.653,0,0,1-.587,2.255l-2.476,1.459v-3.449C119.178,416.7,119.178,416.5,119.178,416.365Z" transform="translate(28.016 -208.55)" fill="#001c33"/>
      <path id="Path_125" data-name="Path 125" d="M182.35,365.027h0a1.253,1.253,0,0,1-.456.066.816.816,0,0,1-.391-.066h-.065c-.13,0-.2-.066-.326-.133a.064.064,0,0,1-.065-.066c-.13-.066-.2-.133-.326-.2a1.155,1.155,0,0,1-.261-.332c0-.066-.065-.066-.065-.133s-.066-.133-.066-.2a.234.234,0,0,0-.065-.133c0-.066,0-.133-.066-.133v-.2a1.786,1.786,0,0,1,.782-1.526h.066a1.592,1.592,0,0,1,2.215.6,2.073,2.073,0,0,1,.2.863v.331c0,.066,0,.133-.066.133a.234.234,0,0,1-.065.133c0,.066-.066.066-.066.133s-.065.066-.065.133l-.13.133a.064.064,0,0,1-.065.066l-.13.133c-.065,0-.065.066-.13.066a.064.064,0,0,0-.065.066A.581.581,0,0,1,182.35,365.027Z" transform="translate(12.993 -195.288)" fill="#001c33"/>
      <path id="Path_126" data-name="Path 126" d="M151.663,380.729a1.7,1.7,0,0,1-.326,2.321,1.735,1.735,0,0,1-.977.332,1.692,1.692,0,0,1-1.3-.663,9.2,9.2,0,0,1-.912-1.593l2.8-1.658A7.811,7.811,0,0,0,151.663,380.729Z" transform="translate(20.877 -199.646)" fill="#001c33"/>
      <path id="Path_127" data-name="Path 127" d="M168.519,369.333a2.435,2.435,0,0,1-.848.4l1.694-.995A2.483,2.483,0,0,1,168.519,369.333Z" transform="translate(16.074 -197.007)" fill="#001c33"/>
      <path id="Path_128" data-name="Path 128" d="M139.784,389.1a1.608,1.608,0,0,1-1.5,1.062,1.869,1.869,0,0,1-.587-.133,1.648,1.648,0,0,1-.912-2.123c.066-.2.13-.332.2-.531l4.169-2.455C140.761,386.249,140.305,387.708,139.784,389.1Z" transform="translate(23.698 -200.987)" fill="#001c33"/>
      <path id="Path_129" data-name="Path 129" d="M120.088,408.959c.2-.066.326-.2.521-.265h.065a.5.5,0,0,1,.326-.133,1.6,1.6,0,0,1,2.02,1.062,1.938,1.938,0,0,1,.065.862,1.816,1.816,0,0,1-.847,1.128,28.392,28.392,0,0,1-2.867,1.393,30.552,30.552,0,0,1,.522-3.25A6.842,6.842,0,0,1,120.088,408.959Z" transform="translate(27.953 -206.782)" fill="#001c33"/>
      <path id="Path_130" data-name="Path 130" d="M534.232,302.509c.833-.17,11.183-6.3,16.253-9.343h5c.625,0,12.294,1.274,2.292,22.508-6.872,14.587-7.883,18.318-7.416,18.453l.33-.192c-.137.139-.254.215-.33.192L543.4,338.18l4.167,2.761,2.5.637c.9.566,2.584,2.166,2.084,4.034-.625,2.335-5.626,14.014-12.086,7.431-5.168-5.266-1.736-9.838.625-11.466l-.625-8.706,4.585-14.651-.417-4.671c-3.751,2.194-11.294,6.582-11.46,6.582a21.619,21.619,0,0,1-2.084-2.973Z" transform="translate(-73.202 -178.422)" fill="#ff9430"/>
      <path id="Path_131" data-name="Path 131" d="M452.007,416.235l71.764-42.254-.5-23.951-2.167-9.64,1.709-25.395,1.709-6.794-11.127,6.752-4-3.949,14.17-25.948.042-19.662-.25-1.231L451.715,305.78Z" transform="translate(-53.78 -171.289)" fill="#fff"/>
      <path id="Path_132" data-name="Path 132" d="M531.3,365.037c.125,1.869,1.125,3.058,2.334,4.417.834.934,2.334,1.869,2.751,3.015.5,1.4.541,3.1.917,4.544a42.621,42.621,0,0,0,1.667,4.757,2.322,2.322,0,0,0,2,1.188,2.119,2.119,0,0,0,1.626-.679,2.33,2.33,0,0,0,.583-2.293,25.546,25.546,0,0,1-.875-5.86c-.042-1.7.208-3.4-.667-4.926a13.856,13.856,0,0,0-3.25-3.4c-1.5-1.317-3-2.761-5.126-2.8A2.013,2.013,0,0,0,531.3,365.037Z" transform="translate(-73.35 -195.596)" fill="#d7dce0"/>
      <path id="Path_133" data-name="Path 133" d="M533.693,333.247a2.275,2.275,0,0,0,3.543-.467c1.209-1.826,3.417-4.544,2.167-6.795a2.2,2.2,0,0,0-2.418-1.019c-.041,0-.125.042-.167.042a2.034,2.034,0,0,0-1.458,1.869c-.292.467-.584.977-.876,1.444a6.908,6.908,0,0,0-1.375-.68,5.876,5.876,0,0,0-3.126-.85c-.083,0-.125.085-.125.17-.042,1.1.708,2.039,1.208,2.973A16.9,16.9,0,0,0,533.693,333.247Z" transform="translate(-72.998 -186.228)" fill="#d7dce0"/>
      <path id="Path_134" data-name="Path 134" d="M475.982,413.217a8.005,8.005,0,0,0,3.543-6.285c0-2.293-1.583-3.227-3.543-2.081a8.008,8.008,0,0,0-3.543,6.285C472.439,413.429,474.023,414.363,475.982,413.217Z" transform="translate(-58.877 -205.768)" fill="#001c33"/>
      <path id="Path_135" data-name="Path 135" d="M475.982,388.719a8,8,0,0,0,3.543-6.285c0-2.293-1.583-3.227-3.543-2.08a8.005,8.005,0,0,0-3.543,6.285C472.439,388.974,474.023,389.866,475.982,388.719Z" transform="translate(-58.877 -199.743)" fill="#001c33"/>
      <path id="Path_136" data-name="Path 136" d="M475.982,364.222a8.005,8.005,0,0,0,3.543-6.285c0-2.293-1.583-3.227-3.543-2.081a8.008,8.008,0,0,0-3.543,6.285C472.439,364.434,474.023,365.368,475.982,364.222Z" transform="translate(-58.877 -193.719)" fill="#001c33"/>
      <path id="Path_137" data-name="Path 137" d="M475.982,339.724a8,8,0,0,0,3.543-6.285c0-2.293-1.583-3.227-3.543-2.08a8.005,8.005,0,0,0-3.543,6.285C472.439,339.979,474.023,340.913,475.982,339.724Z" transform="translate(-58.877 -187.694)" fill="#001c33"/>
      <path id="Path_138" data-name="Path 138" d="M547.158,373.755h0c.042,0,.042,0,.042.042C547.241,373.8,547.158,373.755,547.158,373.755Z" transform="translate(-77.252 -198.241)" fill="#001c33"/>
      <path id="Path_139" data-name="Path 139" d="M547.145,373.741h0l-.041-.043A.042.042,0,0,0,547.145,373.741Z" transform="translate(-77.239 -198.227)" fill="#001c33"/>
      <path id="Path_140" data-name="Path 140" d="M547.133,373.741l-.042-.043h-.041A.129.129,0,0,1,547.133,373.741Z" transform="translate(-77.226 -198.227)" fill="#001c33"/>
      <path id="Path_141" data-name="Path 141" d="M545.17,374.36a.041.041,0,0,1,.042-.042A.04.04,0,0,1,545.17,374.36Z" transform="translate(-76.763 -198.38)" fill="#001c33"/>
      <path id="Path_142" data-name="Path 142" d="M547.187,373.8c-.042,0-.042-.042-.083-.042A.145.145,0,0,1,547.187,373.8Z" transform="translate(-77.239 -198.241)" fill="#001c33"/>
      <path id="Path_143" data-name="Path 143" d="M546.219,373.579h.167C546.344,373.537,546.26,373.579,546.219,373.579Z" transform="translate(-77.022 -198.193)" fill="#001c33"/>
      <path id="Path_144" data-name="Path 144" d="M545.923,376.275a.041.041,0,0,1-.041-.042h0l.125.042Z" transform="translate(-76.934 -198.851)" fill="#001c33"/>
      <path id="Path_145" data-name="Path 145" d="M538.809,284.81l-.5-.213a.591.591,0,0,0,.25.085c.083.042.167.042.25.128l-7.376-3.653-.208-.084c-2-.892-4.5-.765-7.46.339-.333.127-1.25.51-1.667.722.084-.043.125-.043.209-.085.5-.213,1-.424,1.458-.594V261.283a1.171,1.171,0,0,0-.5-.934,1.126,1.126,0,0,0-1.042,0L450.5,302.561a1.023,1.023,0,0,0-.5.934V414.374a1.173,1.173,0,0,0,.5.934,1.089,1.089,0,0,0,.5.128.975.975,0,0,0,.5-.128L523.223,373.1a1.023,1.023,0,0,0,.5-.934V348.127a3.439,3.439,0,0,1-1.334-.34l-.124-.042a.041.041,0,0,1-.042-.042h.042c.041,0,.041.042.083.042l.041.042a2.961,2.961,0,0,0,1.334.34h.208a6.212,6.212,0,0,0,3.209-1.062,11.666,11.666,0,0,0,4.251-4.331,10.973,10.973,0,0,0,1.625-5.606c0-2.123-.667-3.567-2.042-4.331-.042,0-.083-.042-.125-.042a1.105,1.105,0,0,1,.5,1.4,1.08,1.08,0,0,0-.5-1.4l-5.21-2.548,5.543-3.27a1.022,1.022,0,0,0,.5-.849l.125-2.421a18.87,18.87,0,0,1,2.709-7.857l2.667-4.586a53.657,53.657,0,0,0,4.46-9.258,22.563,22.563,0,0,0,1.292-7.3C543.061,289.481,541.644,286.169,538.809,284.81Zm-17.128,86.758-69.639,40.981V304.089l69.639-40.98V282.3c-.709.339-1.459.765-2.209,1.189a32.193,32.193,0,0,0-11.295,11,28.1,28.1,0,0,0-4.209,14.566,1.082,1.082,0,0,0,.584.977l7.335,3.61c.041,0,.084.043.125.043s.041,0,.083.042c.042,0,.125.042.167.042h.124a.311.311,0,0,0,.209-.042.144.144,0,0,0,.083-.042c.042,0,.084-.043.125-.043l5.459-3.227,1.834-1.1-1.834,1.1a37.41,37.41,0,0,0-3.251,7.347,34.277,34.277,0,0,0-1.167,9.6.977.977,0,0,0,.583.934l3.751,1.826a11.722,11.722,0,0,0-3.626,3.949,11.327,11.327,0,0,0-1.666,5.691c0,2.123.667,3.567,2,4.289.042,0,.042.042.084.042l.041.042,6.585,3.27v24.163Zm-10.419-58.9v-.51A2.1,2.1,0,0,1,511.262,312.668Zm2,.467a.71.71,0,0,0,.083-.424,1.275,1.275,0,0,1-.083.424.569.569,0,0,1-.25.3C513.138,313.389,513.179,313.262,513.263,313.134Zm-.5-1.4-.417-.213Zm8.626-5.9h0Zm.292,40.938h0v0Zm.667-15.84c-.042,0-.125-.042-.167-.042C522.223,330.928,522.265,330.928,522.348,330.928Zm.167,14.778h0Zm.042,0h.25A.263.263,0,0,0,522.556,345.706Zm.417,0c.042,0,.125.042.167.042A.248.248,0,0,1,522.973,345.706Zm4.209-10.447c1.167-.679,2.083-.891,2.751-.594l-1.5-.765c.792.382,1.5.765,1.542.765h.041a.041.041,0,0,1,.042.042.812.812,0,0,0,.417.085,1.468,1.468,0,0,1-.417-.085c.25.127.959.51.959,2.463a8.646,8.646,0,0,1-1.334,4.544,9.5,9.5,0,0,1-3.5,3.568c-.834.51-2.042,1.019-2.792.637h-.084c.041,0,.041.042.084.042-.042,0-.042-.042-.084-.042a.127.127,0,0,0-.083-.043h.041c.042,0,.042,0,.042.043-.208-.127-.875-.51-.875-2.421a9.47,9.47,0,0,1,1.333-4.629A9.134,9.134,0,0,1,527.182,335.259Zm-2.584-4.417.125-.084C524.682,330.8,524.64,330.8,524.6,330.843Zm15.17-29.6a51.1,51.1,0,0,1-4.293,8.875l-2.667,4.544a21.263,21.263,0,0,0-3,8.79l-.084,1.869-6.293,3.7c.042,0,.084.042.125.042a1.833,1.833,0,0,1,.208.085l-.208-.085h-.041c-.042-.042-.084-.042-.167-.042a.042.042,0,0,0-.041-.043,3.567,3.567,0,0,0-.958-.255,4.029,4.029,0,0,1,.958.255,30.962,30.962,0,0,1,1.042-7.091,34.052,34.052,0,0,1,4-8.494,50.294,50.294,0,0,0,4.042-7.6,14.093,14.093,0,0,0,1.042-5.1c0-2.718-.625-4.417-1.917-5.138a3.107,3.107,0,0,0-1.542-.425,6.826,6.826,0,0,0-3.251,1.1,11.823,11.823,0,0,0-4.292,4.459,13.11,13.11,0,0,0-1.626,5.351c0,.127-.041.212-.041.339l-.333.213-7.085,4.162a25.988,25.988,0,0,1,3.835-11.551,30.49,30.49,0,0,1,10.544-10.277c4.334-2.548,7.668-3.355,9.918-2.335a.147.147,0,0,1,.084.042l.458-.934.25-.552c-.125.255-.25.552-.25.552l-.458.934c2.042,1.02,3.084,3.695,3.084,7.941A16.751,16.751,0,0,1,539.768,301.244Z" transform="translate(-53.358 -170.32)" fill="#001c33"/>
      <path id="Path_146" data-name="Path 146" d="M478.683,329.87a3.379,3.379,0,0,0-3.542.255,9.094,9.094,0,0,0-4.084,7.177,3.7,3.7,0,0,0,1.542,3.27,2.77,2.77,0,0,0,1.458.382,4.219,4.219,0,0,0,2.125-.637,9.1,9.1,0,0,0,4.085-7.177A3.638,3.638,0,0,0,478.683,329.87Zm-3.542,8.62c-.584.34-1.125.468-1.459.255s-.5-.722-.5-1.444a6.965,6.965,0,0,1,3.043-5.35,2.281,2.281,0,0,1,1.041-.34,1.2,1.2,0,0,1,.417.085c.333.212.5.722.5,1.443A7.087,7.087,0,0,1,475.141,338.49Z" transform="translate(-58.537 -187.353)" fill="#001c33"/>
      <path id="Path_147" data-name="Path 147" d="M489.943,325.586a.972.972,0,0,0,.5-.127l23.547-13.844a1.059,1.059,0,0,0,.375-1.444,1.018,1.018,0,0,0-1.417-.382L489.4,323.632a1.059,1.059,0,0,0-.376,1.444A1.042,1.042,0,0,0,489.943,325.586Z" transform="translate(-62.921 -182.474)" fill="#001c33"/>
      <path id="Path_148" data-name="Path 148" d="M478.683,354.368a3.379,3.379,0,0,0-3.542.254,9.1,9.1,0,0,0-4.084,7.177,3.7,3.7,0,0,0,1.542,3.27,2.772,2.772,0,0,0,1.458.382,4.21,4.21,0,0,0,2.125-.637,9.094,9.094,0,0,0,4.085-7.176A3.637,3.637,0,0,0,478.683,354.368Zm-3.542,8.621c-.584.339-1.125.467-1.459.255a1.618,1.618,0,0,1-.5-1.4,6.968,6.968,0,0,1,3.043-5.351,2.289,2.289,0,0,1,1.041-.339,1.219,1.219,0,0,1,.417.085,1.619,1.619,0,0,1,.5,1.4A7.09,7.09,0,0,1,475.141,362.988Z" transform="translate(-58.537 -193.377)" fill="#001c33"/>
      <path id="Path_149" data-name="Path 149" d="M512.948,334.23,489.4,348.074a1.058,1.058,0,0,0-.376,1.444,1.085,1.085,0,0,0,.917.552.971.971,0,0,0,.5-.127L513.99,336.1a1.059,1.059,0,0,0,.375-1.444A.99.99,0,0,0,512.948,334.23Z" transform="translate(-62.921 -188.485)" fill="#001c33"/>
      <path id="Path_150" data-name="Path 150" d="M478.683,378.865a3.379,3.379,0,0,0-3.542.255,9.093,9.093,0,0,0-4.084,7.176,3.706,3.706,0,0,0,1.542,3.27,2.771,2.771,0,0,0,1.458.382,4.218,4.218,0,0,0,2.125-.637,9.1,9.1,0,0,0,4.085-7.177A3.637,3.637,0,0,0,478.683,378.865Zm-3.542,8.621a1.638,1.638,0,0,1-1.459.255,1.616,1.616,0,0,1-.5-1.4,6.965,6.965,0,0,1,3.043-5.351,2.282,2.282,0,0,1,1.041-.34,1.222,1.222,0,0,1,.417.085,1.617,1.617,0,0,1,.5,1.4A7.088,7.088,0,0,1,475.141,387.485Z" transform="translate(-58.537 -199.402)" fill="#001c33"/>
      <path id="Path_151" data-name="Path 151" d="M512.948,358.727,489.4,372.572a1.058,1.058,0,0,0-.376,1.443,1.083,1.083,0,0,0,.917.552.971.971,0,0,0,.5-.127L513.99,360.6a1.058,1.058,0,0,0,.375-1.443A.99.99,0,0,0,512.948,358.727Z" transform="translate(-62.921 -194.51)" fill="#001c33"/>
      <path id="Path_152" data-name="Path 152" d="M478.683,403.363a3.379,3.379,0,0,0-3.542.254,9.1,9.1,0,0,0-4.084,7.177,3.7,3.7,0,0,0,1.542,3.27,2.77,2.77,0,0,0,1.458.382,4.21,4.21,0,0,0,2.125-.637,9.094,9.094,0,0,0,4.085-7.176A3.543,3.543,0,0,0,478.683,403.363Zm-3.542,8.578a1.636,1.636,0,0,1-1.459.255,1.616,1.616,0,0,1-.5-1.4,6.967,6.967,0,0,1,3.043-5.351,2.28,2.28,0,0,1,1.041-.339,1.224,1.224,0,0,1,.417.084c.333.213.5.722.5,1.444A6.937,6.937,0,0,1,475.141,411.94Z" transform="translate(-58.537 -205.426)" fill="#001c33"/>
      <path id="Path_153" data-name="Path 153" d="M512.948,383.225,489.4,397.069a1.058,1.058,0,0,0-.376,1.444,1.085,1.085,0,0,0,.917.552.972.972,0,0,0,.5-.128l23.547-13.844a1.059,1.059,0,0,0,.375-1.444A.99.99,0,0,0,512.948,383.225Z" transform="translate(-62.921 -200.534)" fill="#001c33"/>
      <g id="Group_7" data-name="Group 7" transform="translate(285.793 336.554)" clip-path="url(#clip-path-4)">
        <path id="Path_154" data-name="Path 154" d="M379.862,606.99v42.784c0,7.266-4.294,15.671-9.647,18.816l-39.223,23.154c-2.385,1.41-4.558,1.518-6.254.542l-.212-.109c-1.961-1.247-3.18-4.012-3.18-7.863V641.532c0-7.266,4.293-15.671,9.646-18.816l39.223-23.155c2.332-1.409,4.5-1.518,6.148-.6l.054.054C378.59,600.157,379.862,602.978,379.862,606.99Z" transform="translate(-307.512 -590.034)" fill="#fff"/>
        <path id="Path_155" data-name="Path 155" d="M359.125,588.97l13.039,7.537c-1.7-.922-3.816-.813-6.149.6l-39.222,23.154c-5.3,3.091-9.594,11.55-9.594,18.816v42.783c0,3.9,1.219,6.616,3.181,7.863l-12.933-7.428c-2.067-1.193-3.393-4.013-3.393-8.026V631.536c0-7.266,4.294-15.671,9.647-18.817l39.223-23.154C355.255,588.156,357.429,588.048,359.125,588.97Z" transform="translate(-303.259 -587.576)" fill="#001c33"/>
        <path id="Path_156" data-name="Path 156" d="M324.407,692.733a1.225,1.225,0,0,1-.424-.109c-2.279-1.464-3.551-4.555-3.551-8.568V641.274c0-7.484,4.5-16.268,10.018-19.522L369.672,598.6c2.491-1.464,4.982-1.681,6.944-.6a.817.817,0,0,1,.318,1.084.78.78,0,0,1-1.06.325c-1.484-.813-3.339-.651-5.407.6l-39.222,23.154c-5.089,2.982-9.222,11.116-9.222,18.111v42.783c0,3.417,1.007,6.073,2.809,7.212a.866.866,0,0,1,.265,1.139A1.041,1.041,0,0,1,324.407,692.733Z" transform="translate(-307.287 -589.776)" fill="#001c33"/>
        <path id="Path_157" data-name="Path 157" d="M328.1,693.683a5.557,5.557,0,0,1-2.81-.705.817.817,0,0,1-.318-1.084.78.78,0,0,1,1.059-.326c1.485.868,3.393.651,5.46-.542l39.223-23.154c5.088-2.982,9.222-11.116,9.222-18.111V606.923c0-3.579-1.113-6.236-2.968-7.321a.817.817,0,0,1-.318-1.084.78.78,0,0,1,1.06-.325c2.438,1.355,3.816,4.555,3.816,8.73v42.784c0,7.482-4.505,16.268-10.018,19.52l-39.222,23.155A8.166,8.166,0,0,1,328.1,693.683Z" transform="translate(-308.38 -589.967)" fill="#001c33"/>
        <path id="Path_158" data-name="Path 158" d="M320.332,690.382a.75.75,0,0,1-.371-.109l-13.145-7.483c-2.438-1.41-3.816-4.555-3.816-8.731V631.277c0-7.484,4.506-16.268,10.018-19.521L352.24,588.6c2.544-1.519,5.036-1.682,7-.542l13.144,7.537a.817.817,0,0,1,.318,1.084.78.78,0,0,1-1.06.326l-13.2-7.538c-1.484-.813-3.392-.651-5.459.542L313.76,613.166c-5.036,2.982-9.17,11.116-9.17,18.111V674.06c0,3.579,1.113,6.236,2.968,7.266l13.145,7.537a.756.756,0,0,1,.265,1.084A.688.688,0,0,1,320.332,690.382Z" transform="translate(-303 -587.316)" fill="#001c33"/>
        <path id="Path_159" data-name="Path 159" d="M348.213,662.072l-8.322,8.459,8.322-1.464v4.5l-12.88,2.006V670.8l12.88-13.231Z" transform="translate(-310.952 -604.594)" fill="#4baaba"/>
        <path id="Path_160" data-name="Path 160" d="M361.756,640.039l4.4-2.6L357.569,671.6l-4.452,2.6Z" transform="translate(-315.325 -599.642)" fill="#4baaba"/>
        <path id="Path_161" data-name="Path 161" d="M383.71,644.052v4.772l-12.88,13.231v-4.5l8.321-8.405-8.321,1.409v-4.5Z" transform="translate(-319.681 -601.269)" fill="#4baaba"/>
      </g>
    </g>
  </g>
</svg>
