<?xml version="1.0" encoding="iso-8859-1"?>
<!-- Generator: Adobe Illustrator 19.0.0, SVG Export Plug-In . SVG Version: 6.00 Build 0)  -->
<svg version="1.1" id="Layer_1" xmlns="http://www.w3.org/2000/svg" xmlns:xlink="http://www.w3.org/1999/xlink" x="0px" y="0px"
	 viewBox="0 0 512 512" style="enable-background:new 0 0 512 512;" xml:space="preserve">
<circle style="fill:#E9EDF1;" cx="256" cy="256" r="256"/>
<g>
	<path style="fill:#333333;" d="M459.96,398.696V122.744c0-6.6-5.4-12-12-12H64.112c-6.6,0-12,5.4-12,12v275.952
		C52.12,398.696,460.968,398.696,459.96,398.696z"/>
	<rect x="67.112" y="125.744" style="fill:#333333;" width="377.84" height="257.92"/>
</g>
<rect x="16" y="398.696" style="fill:#D8D8D8;" width="479.92" height="7.504"/>
<polygon style="fill:#AAAAAA;" points="472.008,421.192 40.08,421.192 16.08,406.2 496,406.2 "/>
<g style="opacity:0.7;">
	<path style="fill:#FFFFFF;" d="M296.304,398.696h-80.688c0.768,4.208,4.52,7.504,9.216,7.504h62.248
		C291.784,406.2,295.544,402.904,296.304,398.696z"/>
</g>
<g>
	<circle style="fill:#DB2B42;" cx="167.888" cy="144" r="8"/>
	<circle style="fill:#DB2B42;" cx="135.888" cy="144" r="8"/>
	<circle style="fill:#DB2B42;" cx="103.888" cy="144" r="8"/>
</g>
<g>
	<rect x="191.872" y="140" style="fill:#E9EDF1;" width="224" height="8"/>
	<rect x="288.4" y="196" style="fill:#E9EDF1;" width="111.416" height="25.336"/>
	<rect x="288.4" y="238.224" style="fill:#E9EDF1;" width="111.416" height="25.336"/>
	<rect x="288.4" y="280.48" style="fill:#E9EDF1;" width="111.416" height="25.336"/>
	<rect x="288.4" y="322.64" style="fill:#E9EDF1;" width="111.416" height="25.336"/>
	<rect x="111.792" y="340" style="fill:#E9EDF1;" width="147.696" height="8"/>
</g>
<path style="fill:#DB2B42;" d="M250.736,318.664H120.544c-4.816,0-8.752-3.936-8.752-8.752v-105.16c0-4.816,3.936-8.752,8.752-8.752
	h130.192c4.816,0,8.752,3.936,8.752,8.752V309.92C259.488,314.728,255.544,318.664,250.736,318.664z"/>
<polygon style="fill:#FFFFFF;" points="167.744,225.824 221.424,256.816 167.744,287.808 "/>
<g>
</g>
<g>
</g>
<g>
</g>
<g>
</g>
<g>
</g>
<g>
</g>
<g>
</g>
<g>
</g>
<g>
</g>
<g>
</g>
<g>
</g>
<g>
</g>
<g>
</g>
<g>
</g>
<g>
</g>
</svg>
